<?xml version="1.0" encoding="UTF-8"?>
<svg id="Layer_1" xmlns="http://www.w3.org/2000/svg" version="1.1" viewBox="0 0 1080 1080">
  <!-- Generator: Adobe Illustrator 29.2.1, SVG Export Plug-In . SVG Version: 2.1.0 Build 116)  -->
  <defs>
    <style>
      .st0 {
        display: none;
        fill: #fff;
      }
    </style>
  </defs>
  <path class="st0" d="M1028.85.87v1024H4.85V.87h1024ZM496.16,114.06c-82.32,5.39-151.73,53.35-185.79,127.9-46.24,101.22-4.38,221.04,86.08,280.91,4.31,5.14-8.14,18.32-11.39,23.56-10.58,17.06-19.06,34.54-31.16,50.76-9.89,13.26-22.3,24.19-26.88,41.06-1.55,5.7-1.8,11.71-3.46,17.52-7.42,26.02-20.74,45.49-22.99,74.91-2.56,33.41,10.45,88.44,25.08,118.74,4.98,10.31,12.73,11.94,23.47,13.49,27.2,3.93,55.39,3.38,82.84,4.08,85.99,2.19,173.83,3.35,259.72-.95,15.96-.8,48.97-2.05,62.33-10.59,5.59-3.58,3.04-10.83,3.04-15.85.08-75.56,2.68-170.22-18.44-242.3-12.26-41.86-29.79-65.24-51.86-100.99-1.8-2.92-9.67-15.15-9.68-17.4-.01-2.88,7.79-10.09,10.07-13.01,77.51-99.19,54.79-249.73-52.01-317.58-40.08-25.47-91.56-37.36-138.99-34.26Z"/>
  <path d="M496.16,114.06c47.43-3.11,98.9,8.79,138.99,34.26,106.8,67.85,129.52,218.39,52.01,317.58-2.28,2.92-10.08,10.13-10.07,13.01.01,2.25,7.88,14.49,9.68,17.4,22.08,35.75,39.6,59.13,51.86,100.99,21.12,72.08,18.52,166.74,18.44,242.3,0,5.02,2.55,12.27-3.04,15.85-13.36,8.55-46.37,9.79-62.33,10.59-85.88,4.3-173.73,3.13-259.72.95-27.45-.7-55.64-.15-82.84-4.08-10.74-1.55-18.5-3.18-23.47-13.49-14.64-30.31-27.64-85.33-25.08-118.74,2.26-29.42,15.57-48.9,22.99-74.91,1.66-5.81,1.91-11.82,3.46-17.52,4.58-16.86,16.99-27.8,26.88-41.06,12.1-16.22,20.58-33.7,31.16-50.76,3.25-5.24,15.71-18.42,11.39-23.56-90.46-59.86-132.32-179.68-86.08-280.91,34.06-74.56,103.47-122.51,185.79-127.9ZM674.2,470.41c52.38-54.98,65.68-141.82,40.22-212.56-67.59-187.79-345.51-182.53-406.89,7.25-29.06,89.86,9.02,197.32,87.61,249.09,1.85,1.22,5.74,4.55,7.6,4.07,5.99-5.13,13.19-13.61,14.45-21.61,2.24-14.26-14.91-43.34-20.92-57.53-18.04-42.6-31.49-77.28-28.83-125.1,4.59-82.82,101.4-118.51,172.88-101.87,95.46,22.22,90.64,116.83,110.37,193.33,5.79,22.43,13.83,43.93,23.5,64.93ZM541.32,226.64c-.94-2.36-3.9-2.78-5.99-3.49-15.93-5.42-41.64-6.41-58.32-4.36-20.83,2.56-41.51,11.43-57.57,24.84,29.03-7.27,59.34.19,84.94,14.48l21.95,14.5c.65-3.78-4.12-3.04-5.03-4.37-.98-1.43-.79-3.34-1.54-4.54-3.1-4.98-7.3-4.65-10.94-7.04-3.89-2.55-7.82-7.66-12.15-10.83-4.86-3.55-11.91-7.22-17.28-10.2.17-2.11,4.78-.79,6.03-.53,25.74,5.36,41.04,21.06,57.95,38.95,2.85,3.01,5.08,8.76,9.94,8.54,1.92-15.02-10.08-27.72-20.45-36.99-4.29-3.83-9.61-6.36-13.12-10.86l-24.37-9.1c0-1.68,3.33-1.9,4.48-1.99,13.35-1.06,28.38.36,41.46,2.99ZM531.32,603.28c25.6-60.76,55.86-125.36,48.96-193.3-4.3-42.28-17.98-87.18-46.92-118.92-64.5-70.72-172.99-58.83-158.73,55.83,7.85,63.07,42.18,107.79,58.52,167.26,2.17,7.92,4.22,16.04,5.29,24.2,2.95.49,2.26-3.04,4.46-5.03,3.62-3.28,3.55-1.68,7.12-6.91.49-.71,2.21-.8,2.45-1.76.63-2.57-3.5-17.61-4.55-21.27-9.76-34.17-32.95-58.8-46.63-91.24-9.59-22.76-25.01-68.93-21.56-92.85,2.07-14.37,17.16-37.5,31.72-41.21,35.77-9.1,91.44,14.57,112.71,44.15,50.15,69.73,41.52,157.06,19.66,235.08-3.85,13.76-10.39,29.25-13.04,42.91-.2,1.03-1.31,3.28.55,3.04ZM453.83,456.01c13.17,12.03,22.78,24.5,42.21,16.58s39.71-28.99,48.45-47.45c7.45-15.74,6.72-21.07,1.11-37.42-9.73-28.38-40.52-51.23-69.21-57.67-18.08-4.06-36.96-3.17-53.63-12.31-1.79-.98-10.57-7.71-11.31-7.16-3.38,9.99-11.88,19.36-13.55,29.92-1.95,12.33,1.27,22.09,6.67,32.91,25.98-5.24,40.69,17.52,42.82,40.59.37,4.03-1.3,16.01,2.02,18.03,7.94,1.16,13.64-5.54,20.98-6.55-4.41,5.52-15.51,13.2-22.54,9.05-4.91-2.9-3.66-18.49-4.55-24.43-2.08-13.99-7.84-29-22.82-33.13-4.27-1.18-10.57-2.45-14.01,1.04,2.74,3.31,5.06,7.08,7.14,10.82,4.77,8.56,4.56,16.03,17.08,13.43,3.61-.75,5.38-4.09,8.71-4.76-.26,9.16-12.43,11.32-18.97,6.99,3.12,22.16,17.66,37.18,33.38,51.53ZM508.35,328.54c-10.17-7.98-27.62-8.99-40.58-10.86-11.63-1.67-23.67-2.15-35.34-4.11,1.02,1.78,5.26,2.73,7.21,3.27,16.56,4.57,33.47,5.3,50.12,6.81,5.91.54,12.61,4.07,18.6,4.89ZM553.31,433.45c-1.43-1.6-8.8,9.27-9.96,10.51-11.65,12.46-25.36,22.19-41.08,28.85-1.52,6.24-1.09,12.8-2.96,19.02-1.39,4.63-4.55,8.52-5.75,13.24-.1,5.68,20.77,7.4,25.27,7.28,6.71-.17,27.97-4.43,31.55-10.41,1.83-3.06,3.72-23.26,3.97-28,.7-13.51-.64-27.03-1.05-40.5ZM608.2,475.45c-.78-.49-2.17-.19-3.02.6-1.39,1.29-5.86,13.06-6.93,15.82-6.09,15.71-9.72,32.17-14.7,48.24-2.92,9.44-6.94,18.71-9.25,28.2l8.81-12.66c9.01-16.68,18.43-37.75,23.3-56.62.94-3.64,4.71-21.75,1.79-23.58ZM547.31,513.37c-18.93,5.97-43.08,7.26-60.28-3.84-8.61,6.06-14.93,24.39-4.36,31.03,11.56,7.27,46.51,8.6,58-.44l6.64-26.75ZM425.43,513.37c-.84-.78-5.08,2.73-6,3.48-15.28,12.48-37.87,43.45-43.66,62.24-5.36,17.39-4.67,48.4,1.94,65.42.88,2.28,7.71,12.65,8.62,6.26.13-.89-4.1-14.03-4.58-17.29-2.01-13.77.48-44.78,7.51-56.87.8-1.38,1.24-2.67,3.2-2.29.49,11.79-.02,24.27,3.99,35.48.54,1.5,1.39,5.01,3,5.47,1.38-12.7,1.78-28.09,5.11-40.35,1.32-4.87,5.11-10.74,6.42-15.58.63-2.32-1.63-5.74,1.96-7.98,1.96,1.4,1.6,3.46,1.56,5.49-.6,31.86-7.72,43.74,7.99,74.87,1.55,3.07-.34,4.71,4.93,5.53-1.23-11.32-6.06-22.09-6.97-33.48-.9-11.41-.24-52.62,5.47-61.43.31-.48,1.26-1.29,1.5-.99l4.02,20.97,2.71-8.76c1.48-13.77-6.66-26.74-8.72-40.18ZM456.23,528.55c-4-2.28-6.08,3.69-5.81,6.8l4.87-1.87c6.29,8.65,34.53,78.14,31.08,82.79-.61.09-1.19-.53-1.5-.99-4.41-6.64-10.17-29.9-13.73-39.22-3.98-10.39-10.43-29.2-15.86-38.08-.37-.61-1.35-2-1.85-1.63-.63,2.28-1.16,3.74-.82,6.22,1.4,10.38,13.83,33.75,17.81,46.21,3.62,11.3,6.53,22.88,8.96,34.49-2.63-1.72-3.9-5.67-5.01-8.47-5.75-14.48-9.32-32.01-14.69-47.25-2.91-8.26-7.87-16.4-8.27-25.2-1.85.98-2.97,6.65-3.02,8.53-.22,8.65,10.23,30.9,13.3,40.63,3.47,11,7.46,23.58,8.21,34.75-9.45-18.18-12.14-40.15-19.71-59.21-.56-1.41-1.14-2.32-2.29-.74-2.01,3.54,2.49,21.83,3.24,26.76,3.4,22.18,7.37,68.66,21.74,85.16,6.57,7.55,8.87,6.21,17.19,1.18,6.45-3.9,12.03-10.35,17.11-15.9-2.48-31.89-8.56-61.68-21.62-90.87-4.25-9.5-12.3-26.66-18.32-34.62-.68-.9-1.66-2.84-2.82-1.17,8.42,22.17,27.49,48.44,29.83,72.06.16,1.59,1.08,6.69-.86,7.36-4.88-17.46-11.32-34.3-18.53-50.91-3.69-8.51-7.36-18.04-11.92-26.04-.84-1.47-6.15-10.45-6.7-10.76ZM469.39,688.2c-2.08-8.61-7.4-15.43-10.25-24.21-7.54-23.22-12.31-59.74-14.72-84.19-.77-7.86.74-20.2.92-28.97.1-4.89,4.15-11.3-.43-14.46-3.99-.03-9.51,26.53-10.2,30.74-4.53,27.75-1.8,70.03,6.21,97.11,4.7,15.89,9.64,25.45,28.47,23.98ZM524.34,555.34c-12.64.34-25.51-.73-37.49-4.98-1.98-.7-10.77-5.58-11.47-5.01,4.27,6.89,8.58,14.01,12.17,21.29,5.71,11.59,9.77,23.98,15.31,35.64,4.01-16.79,12.29-29.94,22.41-43.57l-1.64-1.58.71-1.79ZM613.25,604.27c5.41-13.48,17.53-22.35,25-34.43,2.58-4.18,8.76-12.69.38-13.5-10.59-1.02-21.38,20.3-33.27,19.86l-1.6-3.87c-13.04,17.45-29.34,34.83-40.34,53.64-1.05,1.79-.26,4.39-3.11,5.78-.14.76.95.62,1.51.51,1.1-.22,11.22-8.11,12.52-9.46,4.24-4.42,8.1-11.58,12.43-16.54,6.56-7.52,16.07-16.62,23.48-23.48,2.6-2.41,13.45-12.56,15.51-13.46,1.23-.54,1.89.26,1.47,1.47l-61.92,90.42c6.55.43,4.74-9.43,8.99-11.5,2.39-1.17,7.07-.57,7.05,2.46l1.42.04c1.75-3.26,6.06-4.24,8.04-5.95,3.01-2.6,8.92-10.99,12.5-12.53,1.38-.59,2.59.81,4.48-.38,1.41-.89,2.92-3.5,4.46-4.6-2.19-3.37-5.27-.09-7.97-.99,8.26-7.13,19.02-15.19,28.66-20.29s15.71-4.46,26.27-2.2c-2.8-15.94-12.76-15.63-25.94-11.46-7.25,2.3-13.19,7.36-20.01,10.45ZM360.49,602.29c-1.72-.44-2,.71-3,1.49-8.56,6.63-17.21,19.37-20.97,29.46,10.91,1.24,21.45,20.02,29.7,21.76,1.97.41,7.44,1.05,7.13-2.09-3.86-9.27-10.25-21.49-11.59-31.4-.87-6.41.75-13.01-1.27-19.22ZM647.21,617.28c-5.24-.46-10.2.3-14.98,2.49-11.93,5.46-26.41,26.07-33.79,37.14-.76,1.13-3.97,5.35-3.17,6.31,1.6-1.33,4.72-1.53,6.05-2.51,1.19-.88-.51-2.57.87-3.96,2.43-2.45,17.51-10.14,21.37-11.68,10.23-4.1,18.89-4.63,28.92-7.04,6.6-1.59,15.83-7.89,9.75-15.3-4.45-5.42-13.25-2.27-19.02-2.47l3.99-2.98ZM698.16,675.21c3.02-3.18-14.55-13.45-16.99-14.47-27.94-11.75-56.92-4.83-75.92,18.46,22.85-10.35,46.76-17.6,72.15-12.7,2.62.51,11.1,2.79,13.1,3.93,1.86,1.06,3.9,5.31,7.65,4.78ZM370.48,675.22c-5.69-.71-10.45-5.63-15.7-7.78-18.85-7.72-23.16-.33-26.25,17.76,5.1-1.63,9.44-4.48,14.78-5.69,7.45-1.7,15.07-1.32,22.56-2.42,1.12-.16,4.66-.36,4.61-1.87ZM510.35,691.19c1.31,1.31,5.64-5.35,6.18-6.29,5.02-8.81,6.74-18.57-6.18-18.19-1.19,3.78-8.33,7.87-9.48,10.52-.86,1.99-.29,4.15-.77,6.22-.09.39-3.14,5.37-1.24,4.75l13.48-8.98-1.99,11.98ZM361.5,722.67c-.61,10.26,0,21.57,0,31.97,0,1.84,2.36,12.58,3.06,14.93.35,1.17,1.48,4.38,2.93,4.55l2.17-26.3,4.82-19.64c-.93,40.83,4.97,81.52,13.97,121.18l10.02,1.69c-7.52-46.11-14.26-96.02-2.7-142.06,3.57-14.2,8.63-26.81,19.69-36.75-13.19,1.79-32.51,8.95-42.46,17.97-5.78,5.25-25.18,32.81-27,39.93-1.29,5.02.62,15.67,6.52,17.01l9.01-28.96c2.61.14.03,3.82-.01,4.49ZM426.38,675.26c-1.94-1.32-6.78,3.91-7.94,5.45-6.43,8.57-8.49,22-7.98,32.47l8.97-18.97c4.58,12.78,11.9,24.84,22.98,32.96-.55-6.64-8.98-9.52-11.23-15.24-1.28-3.27-.48-7.26-1.74-10.73,6.92,7.2,15.89,17.28,26.96,15.49-16.27-9.29-25.17-23.61-30.02-41.42ZM522.34,700.19v14.49c0,.13-2.72,3.02,0,2.01l12.97-23.48c-.74,5.46-.5,11.72-1.44,17.03-1.53,8.65-7.22,15.47-8.26,23.71-.51,4.07-.23,8.13-.28,12.2,9.17-1.38-2.97-13.71,5.98-14.98.14,2.1-.32,4.35.07,6.43.18.95,1.74,5.19,2.93,5.55,4.28-18.45,5.3-37.51,6.94-56.38-.79-4.87-8.64-8.65-12.43-11.53-1.12.07-3.04,7.26-3.95,9.01-6.72,12.85-20.4,19.66-31.51,27.92,11.48.87,20.24-5.66,28.97-11.98ZM585.27,720.17l5.47,60.97c2.03,3.28,4.52-2.57,5.02-4.04,4.56-13.38,1.77-53.21-3.3-66.61-6.49-17.18-24.99-32.62-44.11-28.24l1.6,166.85,15.35.96-1.99-39.46,10.99-107.4,2.88,8.59c2.96,16.98-.36,34.24.11,51.34,2.54.86,2.67-3,2.88-4.59.81-6.24,1.58-13.63,2.1-19.89.5-6.06-2.29-15.26,3-18.47ZM691.17,720.16c.09-14.18-13.33-27.51-25.61-32.82-13.56-5.87-25.06-7.12-37.32,2.36,11.75,2.17,24.31.08,35.67,4.28,8.17,3.02,13.67,10.45,19.78,16.18l7.47,10ZM363.5,694.2c-2.14-1.98-16.71,12.86-18.49,14.96-7.1,8.37-15.93,23-18.24,33.72-.22,1.01-1.01,3.5.76,3.25,3.59-10.33,9.44-20.94,16.99-28.96-.52,3.39-3.12,5.78-4.47,9-3.39,8.08-5.18,17.19-5.5,25.96l11.12-25.33,17.84-32.6ZM692.17,780.11v-20.48c0-10.85-8.17-31.34-14.99-39.96-13.17-16.64-44.71-23.47-64.94-21.97l16.96,32.72c4.98,4.39,12.06,9.2,14.03,15.72,1.88.23.69-1.97.53-3.02-1.79-11.73-13.9-18.99-15.52-30.94l13.98,8.98-7.98-14.49c5.58-.36,13.53,4.69,17.89,8.09,19.01,14.79,30.52,41.04,37.94,63.01.53,1.56-.89,2.85,2.1,2.34ZM638.22,773.11c-5.65-22.33-17.51-49.18-32.98-66.4-1-1.11-7.79-8.66-8.96-7.51l22.14,33.29,13.96,31,5.84,9.63Z"/>
  <path class="st0" d="M674.2,470.41c-9.67-21-17.71-42.49-23.5-64.93-19.73-76.5-14.91-171.11-110.37-193.33-71.48-16.64-168.29,19.05-172.88,101.87-2.65,47.82,10.8,82.5,28.83,125.1,6.01,14.19,23.16,43.27,20.92,57.53-1.26,8-8.45,16.48-14.45,21.61-1.87.48-5.76-2.85-7.6-4.07-78.59-51.77-116.67-159.23-87.61-249.09,61.38-189.78,339.3-195.04,406.89-7.25,25.46,70.74,12.16,157.59-40.22,212.56Z"/>
  <path class="st0" d="M453.83,456.01c-15.71-14.35-30.26-29.37-33.38-51.53,6.54,4.33,18.7,2.17,18.97-6.99-3.34.67-5.1,4.01-8.71,4.76-12.52,2.6-12.31-4.87-17.08-13.43-2.09-3.74-4.41-7.51-7.14-10.82,3.44-3.49,9.74-2.22,14.01-1.04,14.98,4.13,20.74,19.14,22.82,33.13.88,5.93-.37,21.53,4.55,24.43,7.04,4.15,18.13-3.52,22.54-9.05-7.34,1.01-13.04,7.71-20.98,6.55-3.32-2.02-1.64-14-2.02-18.03-2.13-23.07-16.84-45.82-42.82-40.59-5.39-10.81-8.61-20.58-6.67-32.91,1.67-10.55,10.17-19.92,13.55-29.92.74-.55,9.52,6.18,11.31,7.16,16.67,9.14,35.55,8.25,53.63,12.31,28.69,6.44,59.48,29.28,69.21,57.67,5.61,16.36,6.34,21.69-1.11,37.42-8.74,18.47-29.39,39.68-48.45,47.45s-29.05-4.55-42.21-16.58ZM514.34,368.53c-17.57-9.96-54.42-15.25-61.93,8.97,3.07-.44,4.09-3.92,6.52-5.96,16.69-14.08,34.53-6.1,52.16-2.25,1,.22,3.51,1.01,3.25-.76ZM468.39,391.5c13.81,15.56,26.44,9.24,37.97-4.5.94-1.12,2.42-1.62,1.99-3.5-8.62,3.81-14.91,12.85-25.19,11.75-4.86-.52-9.68-3.97-14.76-3.75ZM465.4,451.43c1.36,4.76,8.59,5.94,12.73,4.24,7.15-2.93,6.78-12.44,13.24-16.21-3.43-.35-6.15,1.64-9.48,1.99-3.8.41-10.89-1.36-12.77-.86-2.06.55-4.04,4.65-5.76,5.4-2.19.96-4.23-1.61-5.95.95,3.19.52,5.42,3.27,7.99,4.49-.17-.6-.34-2.08.59-2.06l16.4-3.92c-2.51,9.56-9.01,9.78-16.98,5.98Z"/>
  <path class="st0" d="M531.32,603.28c-1.85.24-.74-2.01-.55-3.04,2.65-13.66,9.19-29.15,13.04-42.91,21.85-78.02,30.48-165.36-19.66-235.08-21.28-29.58-76.94-53.24-112.71-44.15-14.56,3.7-29.65,26.84-31.72,41.21-3.45,23.92,11.97,70.09,21.56,92.85,13.67,32.44,36.87,57.06,46.63,91.24,1.04,3.65,5.17,18.7,4.55,21.27-.23.96-1.96,1.05-2.45,1.76-3.57,5.24-3.49,3.63-7.12,6.91-2.2,1.99-1.51,5.52-4.46,5.03-1.06-8.16-3.11-16.28-5.29-24.2-16.34-59.47-50.67-104.19-58.52-167.26-14.26-114.66,94.23-126.55,158.73-55.83,28.94,31.73,42.62,76.64,46.92,118.92,6.91,67.93-23.36,132.53-48.96,193.3Z"/>
  <path class="st0" d="M456.23,528.55c.55.31,5.86,9.29,6.7,10.76,4.56,8,8.23,17.54,11.92,26.04,7.2,16.61,13.64,33.45,18.53,50.91,1.93-.66,1.02-5.76.86-7.36-2.34-23.63-21.41-49.89-29.83-72.06,1.17-1.66,2.14.27,2.82,1.17,6.02,7.96,14.07,25.13,18.32,34.62,13.06,29.19,19.14,58.98,21.62,90.87-5.07,5.54-10.65,12-17.11,15.9-8.32,5.03-10.62,6.37-17.19-1.18-14.37-16.5-18.33-62.98-21.74-85.16-.76-4.93-5.25-23.22-3.24-26.76,1.14-1.58,1.72-.67,2.29.74,7.58,19.06,10.26,41.03,19.71,59.21-.76-11.17-4.74-23.75-8.21-34.75-3.07-9.73-13.53-31.98-13.3-40.63.05-1.88,1.17-7.55,3.02-8.53.4,8.8,5.36,16.94,8.27,25.2,5.37,15.24,8.94,32.77,14.69,47.25,1.11,2.8,2.37,6.75,5.01,8.47-2.44-11.61-5.35-23.19-8.96-34.49-3.99-12.45-16.42-35.82-17.81-46.21-.33-2.48.19-3.94.82-6.22.51-.38,1.48,1.02,1.85,1.63,5.43,8.88,11.89,27.7,15.86,38.08,3.56,9.31,9.32,32.58,13.73,39.22.31.46.89,1.08,1.5.99,3.45-4.65-24.79-74.14-31.08-82.79l-4.87,1.87c-.27-3.11,1.82-9.08,5.81-6.8Z"/>
  <path class="st0" d="M585.27,720.17c-5.29,3.21-2.49,12.41-3,18.47-.52,6.26-1.29,13.65-2.1,19.89-.21,1.59-.34,5.45-2.88,4.59-.46-17.1,2.85-34.36-.11-51.34l-2.88-8.59-10.99,107.4,1.99,39.46-15.35-.96-1.6-166.85c19.12-4.38,37.62,11.06,44.11,28.24,5.06,13.4,7.86,53.23,3.3,66.61-.5,1.46-2.99,7.32-5.02,4.04l-5.47-60.97Z"/>
  <path class="st0" d="M361.5,722.67c.04-.67,2.63-4.35.01-4.49l-9.01,28.96c-5.89-1.34-7.8-11.99-6.52-17.01,1.82-7.12,21.22-34.68,27-39.93,9.95-9.03,29.26-16.18,42.46-17.97-11.06,9.94-16.12,22.54-19.69,36.75-11.56,46.04-4.82,95.95,2.7,142.06l-10.02-1.69c-9-39.66-14.89-80.35-13.97-121.18l-4.82,19.64-2.17,26.3c-1.45-.17-2.58-3.39-2.93-4.55-.7-2.35-3.06-13.09-3.06-14.93,0-10.4-.61-21.71,0-31.97Z"/>
  <path class="st0" d="M425.43,513.37c2.06,13.44,10.2,26.41,8.72,40.18l-2.71,8.76-4.02-20.97c-.24-.3-1.19.51-1.5.99-5.71,8.82-6.37,50.02-5.47,61.43.9,11.39,5.74,22.17,6.97,33.48-5.27-.82-3.38-2.47-4.93-5.53-15.71-31.13-8.59-43.01-7.99-74.87.04-2.03.4-4.09-1.56-5.49-3.59,2.25-1.34,5.67-1.96,7.98-1.31,4.84-5.1,10.71-6.42,15.58-3.33,12.26-3.73,27.66-5.11,40.35-1.61-.47-2.47-3.98-3-5.47-4-11.21-3.5-23.69-3.99-35.48-1.96-.38-2.39.91-3.2,2.29-7.03,12.09-9.53,43.1-7.51,56.87.48,3.26,4.7,16.41,4.58,17.29-.91,6.39-7.73-3.98-8.62-6.26-6.62-17.02-7.3-48.03-1.94-65.42,5.79-18.79,28.38-49.76,43.66-62.24.92-.75,5.16-4.26,6-3.48Z"/>
  <path class="st0" d="M553.31,433.45c.41,13.47,1.75,26.98,1.05,40.5-.25,4.74-2.13,24.94-3.97,28-3.58,5.98-24.84,10.24-31.55,10.41-4.5.12-25.37-1.6-25.27-7.28,1.2-4.72,4.36-8.61,5.75-13.24,1.87-6.23,1.44-12.78,2.96-19.02,15.72-6.66,29.43-16.39,41.08-28.85,1.16-1.24,8.53-12.11,9.96-10.51Z"/>
  <path class="st0" d="M613.25,604.27c6.82-3.1,12.76-8.16,20.01-10.45,13.18-4.18,23.14-4.48,25.94,11.46-10.56-2.26-16.59-2.92-26.27,2.2s-20.4,13.16-28.66,20.29c2.7.9,5.78-2.38,7.97.99-1.54,1.1-3.05,3.71-4.46,4.6-1.88,1.19-3.1-.22-4.48.38-3.57,1.54-9.48,9.93-12.5,12.53-1.98,1.71-6.29,2.69-8.04,5.95l-1.42-.04c.02-3.03-4.66-3.63-7.05-2.46-4.24,2.07-2.43,11.93-8.99,11.5l61.92-90.42c.42-1.21-.24-2.01-1.47-1.47-2.06.9-12.91,11.06-15.51,13.46-7.41,6.86-16.92,15.96-23.48,23.48-4.33,4.97-8.19,12.13-12.43,16.54-1.3,1.35-11.42,9.24-12.52,9.46-.56.11-1.65.25-1.51-.51,2.86-1.4,2.07-3.99,3.11-5.78,11-18.81,27.3-36.19,40.34-53.64l1.6,3.87c11.9.44,22.68-20.88,33.27-19.86,8.38.81,2.21,9.32-.38,13.5-7.47,12.08-19.6,20.95-25,34.43Z"/>
  <path class="st0" d="M541.32,226.64c-13.09-2.63-28.12-4.05-41.46-2.99-1.16.09-4.48.31-4.48,1.99l24.37,9.1c3.5,4.5,8.83,7.03,13.12,10.86,10.37,9.26,22.37,21.96,20.45,36.99-4.86.23-7.09-5.52-9.94-8.54-16.91-17.89-32.21-33.59-57.95-38.95-1.25-.26-5.86-1.58-6.03.53,5.37,2.97,12.43,6.65,17.28,10.2,4.33,3.16,8.26,8.28,12.15,10.83,3.64,2.39,7.85,2.06,10.94,7.04.75,1.2.55,3.11,1.54,4.54.91,1.33,5.68.59,5.03,4.37l-21.95-14.5c-25.59-14.29-55.9-21.75-84.94-14.48,16.06-13.41,36.74-22.28,57.57-24.84,16.68-2.05,42.39-1.06,58.32,4.36,2.09.71,5.05,1.13,5.99,3.49Z"/>
  <path class="st0" d="M469.39,688.2c-18.82,1.48-23.77-8.09-28.47-23.98-8-27.08-10.73-69.36-6.21-97.11.69-4.21,6.21-30.77,10.2-30.74,4.58,3.16.54,9.57.43,14.46-.19,8.77-1.7,21.11-.92,28.97,2.4,24.45,7.17,60.97,14.72,84.19,2.85,8.78,8.17,15.6,10.25,24.21Z"/>
  <path class="st0" d="M547.31,513.37l-6.64,26.75c-11.49,9.04-46.44,7.71-58,.44-10.58-6.65-4.25-24.97,4.36-31.03,17.2,11.1,41.35,9.81,60.28,3.84Z"/>
  <path class="st0" d="M692.17,780.11c-2.99.5-1.58-.79-2.1-2.34-7.42-21.96-18.93-48.22-37.94-63.01-4.36-3.39-12.31-8.45-17.89-8.09l7.98,14.49-13.98-8.98c1.62,11.95,13.73,19.2,15.52,30.94.16,1.05,1.35,3.25-.53,3.02-1.96-6.51-9.05-11.32-14.03-15.72l-16.96-32.72c20.23-1.49,51.77,5.33,64.94,21.97,6.82,8.62,14.99,29.11,14.99,39.96v20.48Z"/>
  <path class="st0" d="M647.21,617.28l-3.99,2.98c5.77.21,14.56-2.95,19.02,2.47,6.08,7.4-3.15,13.71-9.75,15.3-10.03,2.41-18.69,2.95-28.92,7.04-3.86,1.55-18.94,9.23-21.37,11.68-1.38,1.39.32,3.08-.87,3.96-1.33.98-4.45,1.18-6.05,2.51-.8-.96,2.42-5.18,3.17-6.31,7.38-11.07,21.85-31.68,33.79-37.14,4.78-2.19,9.73-2.95,14.98-2.49Z"/>
  <path class="st0" d="M524.34,555.34l-.71,1.79,1.64,1.58c-10.11,13.63-18.39,26.78-22.41,43.57-5.54-11.66-9.6-24.05-15.31-35.64-3.59-7.28-7.89-14.4-12.17-21.29.7-.57,9.49,4.3,11.47,5.01,11.98,4.25,24.85,5.33,37.49,4.98Z"/>
  <path class="st0" d="M522.34,700.19c-8.73,6.32-17.49,12.85-28.97,11.98,11.1-8.27,24.79-15.08,31.51-27.92.91-1.74,2.83-8.94,3.95-9.01,3.79,2.88,11.64,6.66,12.43,11.53-1.64,18.87-2.66,37.92-6.94,56.38-1.19-.36-2.75-4.6-2.93-5.55-.39-2.08.08-4.33-.07-6.43-8.96,1.27,3.18,13.59-5.98,14.98.04-4.07-.24-8.13.28-12.2,1.04-8.24,6.73-15.06,8.26-23.71.94-5.31.69-11.57,1.44-17.03l-12.97,23.48c-2.73,1.01,0-1.88,0-2.01v-14.49Z"/>
  <path class="st0" d="M360.49,602.29c2.01,6.21.4,12.8,1.27,19.22,1.34,9.91,7.73,22.13,11.59,31.4.31,3.15-5.16,2.51-7.13,2.09-8.25-1.74-18.79-20.52-29.7-21.76,3.76-10.09,12.41-22.83,20.97-29.46,1-.77,1.28-1.93,3-1.49Z"/>
  <path class="st0" d="M608.2,475.45c2.92,1.83-.85,19.94-1.79,23.58-4.86,18.87-14.29,39.94-23.3,56.62l-8.81,12.66c2.3-9.5,6.32-18.76,9.25-28.2,4.98-16.07,8.61-32.52,14.7-48.24,1.07-2.76,5.54-14.53,6.93-15.82.85-.79,2.24-1.09,3.02-.6Z"/>
  <path class="st0" d="M698.16,675.21c-3.75.53-5.79-3.72-7.65-4.78-2-1.13-10.47-3.42-13.1-3.93-25.4-4.9-49.3,2.35-72.15,12.7,18.99-23.29,47.97-30.22,75.92-18.46,2.44,1.02,20.01,11.29,16.99,14.47Z"/>
  <path class="st0" d="M426.38,675.26c4.85,17.81,13.75,32.13,30.02,41.42-11.07,1.79-20.04-8.29-26.96-15.49,1.27,3.47.46,7.47,1.74,10.73,2.24,5.72,10.68,8.6,11.23,15.24-11.08-8.12-18.4-20.18-22.98-32.96l-8.97,18.97c-.51-10.46,1.56-23.89,7.98-32.47,1.16-1.54,6-6.77,7.94-5.45Z"/>
  <path class="st0" d="M691.17,720.16l-7.47-10c-6.12-5.73-11.62-13.16-19.78-16.18-11.36-4.2-23.92-2.11-35.67-4.28,12.25-9.48,23.75-8.23,37.32-2.36,12.28,5.31,25.7,18.64,25.61,32.82Z"/>
  <path class="st0" d="M363.5,694.2l-17.84,32.6-11.12,25.33c.32-8.76,2.11-17.88,5.5-25.96,1.35-3.22,3.96-5.61,4.47-9-7.54,8.02-13.39,18.64-16.99,28.96-1.77.25-.97-2.24-.76-3.25,2.31-10.71,11.14-25.35,18.24-33.72,1.78-2.1,16.35-16.94,18.49-14.96Z"/>
  <path class="st0" d="M370.48,675.22c.05,1.51-3.49,1.7-4.61,1.87-7.49,1.09-15.11.72-22.56,2.42-5.34,1.22-9.68,4.06-14.78,5.69,3.08-18.09,7.39-25.48,26.25-17.76,5.25,2.15,10.01,7.07,15.7,7.78Z"/>
  <path class="st0" d="M510.35,691.19l1.99-11.98-13.48,8.98c-1.9.62,1.15-4.37,1.24-4.75.49-2.07-.09-4.23.77-6.22,1.15-2.66,8.29-6.74,9.48-10.52,12.92-.37,11.2,9.38,6.18,18.19-.54.95-4.88,7.6-6.18,6.29Z"/>
  <path class="st0" d="M638.22,773.11l-5.84-9.63-13.96-31-22.14-33.29c1.17-1.14,7.96,6.4,8.96,7.51,15.48,17.22,27.34,44.07,32.98,66.4Z"/>
  <path class="st0" d="M508.35,328.54c-5.98-.82-12.69-4.35-18.6-4.89-16.65-1.51-33.56-2.24-50.12-6.81-1.95-.54-6.18-1.49-7.21-3.27,11.67,1.95,23.7,2.44,35.34,4.11,12.96,1.86,30.41,2.88,40.58,10.86Z"/>
  <path d="M465.4,451.43c-2.57-1.22-4.79-3.97-7.99-4.49,1.72-2.57,3.76,0,5.95-.95,1.72-.75,3.7-4.86,5.76-5.4,1.88-.5,8.98,1.27,12.77.86,3.32-.36,6.05-2.34,9.48-1.99-6.46,3.77-6.09,13.28-13.24,16.21-4.15,1.7-11.37.52-12.73-4.24,7.97,3.79,14.47,3.57,16.98-5.98l-16.4,3.92c-.93-.02-.76,1.46-.59,2.06Z"/>
  <path d="M514.34,368.53c.26,1.77-2.25.98-3.25.76-17.64-3.85-35.47-11.83-52.16,2.25-2.42,2.04-3.45,5.53-6.52,5.96,7.51-24.21,44.36-18.93,61.93-8.97Z"/>
  <path d="M468.39,391.5c5.09-.22,9.9,3.23,14.76,3.75,10.28,1.1,16.57-7.94,25.19-11.75.44,1.87-1.04,2.38-1.99,3.5-11.53,13.74-24.16,20.07-37.97,4.5Z"/>
</svg>