<?xml version="1.0" encoding="UTF-8"?>
<svg id="Layer_1" xmlns="http://www.w3.org/2000/svg" version="1.1" viewBox="0 0 1080 1080">
  <!-- Generator: Adobe Illustrator 29.2.1, SVG Export Plug-In . SVG Version: 2.1.0 Build 116)  -->
  <defs>
    <style>
      .st0 {
        fill: #ffe3d1;
      }

      .st1 {
        fill: #fff;
      }

      .st1, .st2 {
        display: none;
      }
    </style>
  </defs>
  <g class="st2">
    <path class="st1" d="M1028.85-125v1149.87H-89.25V-125h1118.1ZM447.21,2.1c-89.88,6.05-165.67,59.9-202.86,143.63-50.49,113.66-4.79,248.22,93.99,315.44,4.71,5.77-8.89,20.57-12.44,26.45-11.55,19.16-20.81,38.79-34.02,57-10.79,14.89-24.35,27.17-29.35,46.1-1.69,6.4-1.97,13.15-3.78,19.67-8.1,29.22-22.64,51.08-25.1,84.12-2.8,37.52,11.41,99.31,27.39,133.34,5.44,11.58,13.9,13.4,25.63,15.15,29.7,4.41,60.48,3.79,90.45,4.58,93.89,2.46,189.81,3.76,283.58-1.06,17.43-.9,53.47-2.3,68.06-11.9,6.11-4.02,3.32-12.16,3.32-17.8.09-84.85,2.93-191.15-20.13-272.08-13.39-47-32.52-73.26-56.63-113.4-1.97-3.27-10.55-17.01-10.57-19.54-.02-3.23,8.5-11.33,10.99-14.61,84.63-111.38,59.82-280.43-56.79-356.62C555.2,11.97,499-1.39,447.21,2.1Z"/>
    <path d="M447.21,2.1c51.79-3.49,107.99,9.87,151.76,38.47,116.61,76.19,141.42,245.24,56.79,356.62-2.49,3.28-11.01,11.38-10.99,14.61.01,2.53,8.6,16.27,10.57,19.54,24.11,40.14,43.24,66.4,56.63,113.4,23.06,80.94,20.22,187.24,20.13,272.08,0,5.64,2.79,13.78-3.32,17.8-14.59,9.6-50.63,11-68.06,11.9-93.77,4.83-189.69,3.52-283.58,1.06-29.97-.78-60.75-.16-90.45-4.58-11.73-1.74-20.2-3.57-25.63-15.15-15.98-34.03-30.18-95.82-27.39-133.34,2.46-33.04,17-54.91,25.1-84.12,1.81-6.52,2.09-13.28,3.78-19.67,5-18.94,18.55-31.22,29.35-46.1,13.21-18.21,22.47-37.84,34.02-57,3.55-5.89,17.15-20.68,12.44-26.45-98.78-67.22-144.48-201.77-93.99-315.44C281.54,62,357.33,8.15,447.21,2.1ZM641.62,402.26c57.2-61.73,71.71-159.26,43.92-238.69-73.8-210.88-377.27-204.97-444.28,8.14-31.73,100.9,9.85,221.57,95.67,279.71,2.02,1.37,6.27,5.11,8.3,4.57,6.54-5.76,14.4-15.28,15.78-24.27,2.45-16.01-16.28-48.66-22.84-64.6-19.69-47.83-34.38-86.78-31.48-140.48,5.01-93,110.72-133.08,188.77-114.39,104.23,24.95,98.97,131.19,120.52,217.09,6.32,25.19,15.1,49.33,25.66,72.91ZM496.52,128.52c-1.03-2.65-4.25-3.12-6.54-3.92-17.4-6.09-45.47-7.2-63.68-4.9-22.74,2.88-45.33,12.84-62.86,27.89,31.7-8.17,64.8.21,92.74,16.26l23.97,16.28c.71-4.24-4.49-3.41-5.49-4.9-1.08-1.6-.86-3.75-1.68-5.1-3.38-5.59-7.97-5.22-11.95-7.91-4.25-2.87-8.54-8.61-13.27-12.16-5.3-3.99-13.01-8.11-18.87-11.45.19-2.37,5.22-.89,6.58-.59,28.1,6.02,44.81,23.65,63.27,43.74,3.11,3.39,5.55,9.84,10.85,9.59,2.09-16.87-11-31.13-22.33-41.53-4.68-4.3-10.49-7.14-14.32-12.2l-26.61-10.22c0-1.89,3.63-2.13,4.9-2.24,14.57-1.19,30.98.4,45.27,3.36ZM485.6,551.45c27.95-68.23,61-140.77,53.46-217.06-4.69-47.48-19.63-97.9-51.23-133.54-70.43-79.42-188.89-66.06-173.31,62.69,8.57,70.82,46.06,121.04,63.89,187.82,2.37,8.89,4.61,18.01,5.77,27.17,3.22.55,2.47-3.41,4.87-5.65,3.96-3.69,3.88-1.88,7.77-7.76.53-.8,2.42-.9,2.67-1.98.68-2.89-3.82-19.78-4.96-23.88-10.66-38.37-35.98-66.03-50.91-102.45-10.47-25.55-27.31-77.4-23.55-104.26,2.26-16.14,18.74-42.11,34.64-46.27,39.06-10.21,99.84,16.36,123.07,49.58,54.76,78.3,45.33,176.37,21.47,263.98-4.21,15.45-11.35,32.84-14.24,48.18-.22,1.15-1.43,3.68.6,3.41ZM400.99,386.08c14.38,13.51,24.87,27.51,46.09,18.61,20.82-8.73,43.36-32.55,52.91-53.29,8.13-17.67,7.33-23.66,1.21-42.02-10.62-31.87-44.24-57.52-75.57-64.76-19.74-4.56-40.35-3.56-58.55-13.82-1.95-1.1-11.54-8.66-12.35-8.04-3.69,11.22-12.98,21.75-14.8,33.59-2.13,13.84,1.39,24.81,7.28,36.95,28.36-5.88,44.43,19.67,46.76,45.58.41,4.52-1.42,17.98,2.2,20.25,8.67,1.31,14.89-6.22,22.91-7.35-4.82,6.2-16.93,14.82-24.62,10.16-5.36-3.25-4-20.76-4.96-27.43-2.27-15.71-8.56-32.56-24.92-37.2-4.66-1.32-11.54-2.75-15.3,1.17,2.99,3.72,5.52,7.95,7.8,12.15,5.21,9.61,4.98,18,18.65,15.08,3.94-.84,5.87-4.59,9.51-5.34-.29,10.28-13.57,12.71-20.71,7.85,3.4,24.89,19.29,41.75,36.44,57.87ZM460.52,242.95c-11.11-8.96-30.16-10.1-44.31-12.19-12.7-1.88-25.84-2.42-38.58-4.61,1.12,2,5.74,3.07,7.87,3.67,18.08,5.13,36.54,5.95,54.72,7.64,6.45.6,13.77,4.57,20.31,5.49ZM509.61,360.76c-1.56-1.8-9.6,10.41-10.87,11.8-12.72,13.99-27.69,24.91-44.86,32.4-1.66,7.01-1.19,14.37-3.23,21.36-1.52,5.2-4.97,9.57-6.28,14.87-.1,6.38,22.68,8.31,27.6,8.18,7.32-.19,30.54-4.97,34.45-11.69,2-3.44,4.06-26.12,4.33-31.45.77-15.17-.69-30.35-1.14-45.47ZM569.54,407.92c-.85-.55-2.37-.21-3.29.67-1.52,1.45-6.4,14.66-7.57,17.77-6.65,17.65-10.62,36.12-16.05,54.17-3.19,10.6-7.58,21-10.1,31.67l9.62-14.21c9.84-18.73,20.13-42.39,25.44-63.58,1.02-4.09,5.14-24.42,1.95-26.48ZM503.06,450.5c-20.67,6.7-47.04,8.15-65.82-4.32-9.4,6.81-16.31,27.38-4.76,34.85,12.63,8.16,50.78,9.66,63.33-.49l7.25-30.04ZM369.98,450.5c-.92-.88-5.55,3.06-6.55,3.91-16.68,14.01-41.35,48.79-47.67,69.89-5.85,19.53-5.1,54.35,2.12,73.47.97,2.56,8.42,14.2,9.41,7.02.14-.99-4.47-15.76-5-19.42-2.2-15.46.52-50.29,8.2-63.86.88-1.55,1.35-3,3.49-2.57.54,13.24-.02,27.25,4.35,39.84.58,1.68,1.52,5.62,3.28,6.15,1.5-14.26,1.95-31.55,5.58-45.31,1.44-5.46,5.58-12.06,7.01-17.5.68-2.6-1.78-6.44,2.15-8.96,2.14,1.58,1.75,3.89,1.71,6.17-.66,35.78-8.43,49.12,8.72,84.07,1.69,3.44-.37,5.29,5.38,6.21-1.34-12.71-6.62-24.81-7.61-37.6-.99-12.81-.26-59.08,5.97-68.99.34-.54,1.37-1.45,1.64-1.11l4.39,23.55,2.96-9.84c1.62-15.46-7.27-30.03-9.52-45.12ZM403.62,467.54c-4.36-2.56-6.64,4.14-6.35,7.64l5.31-2.1c6.86,9.72,37.7,87.75,33.93,92.97-.66.1-1.3-.59-1.63-1.11-4.81-7.45-11.1-33.58-14.99-44.04-4.34-11.66-11.39-32.79-17.32-42.77-.4-.68-1.47-2.25-2.03-1.83-.69,2.56-1.26,4.2-.9,6.99,1.53,11.66,15.1,37.9,19.45,51.89,3.95,12.69,7.12,25.69,9.79,38.72-2.88-1.93-4.25-6.36-5.47-9.51-6.28-16.26-10.18-35.95-16.04-53.06-3.18-9.27-8.6-18.42-9.03-28.3-2.02,1.1-3.24,7.47-3.3,9.58-.24,9.71,11.17,34.7,14.53,45.63,3.79,12.35,8.14,26.48,8.97,39.02-10.32-20.42-13.25-45.08-21.52-66.49-.61-1.59-1.25-2.6-2.5-.83-2.19,3.97,2.71,24.52,3.54,30.05,3.72,24.91,8.05,77.1,23.73,95.63,7.18,8.48,9.68,6.97,18.77,1.33,7.05-4.38,13.14-11.63,18.68-17.85-2.71-35.81-9.34-69.26-23.61-102.04-4.64-10.67-13.43-29.94-20.01-38.88-.74-1.01-1.81-3.19-3.08-1.32,9.2,24.9,30.02,54.39,32.58,80.92.17,1.79,1.17,7.52-.94,8.26-5.33-19.6-12.36-38.52-20.23-57.17-4.03-9.55-8.04-20.26-13.02-29.24-.92-1.65-6.71-11.73-7.31-12.09ZM417.98,646.81c-2.27-9.67-8.08-17.33-11.19-27.19-8.24-26.07-13.44-67.08-16.07-94.54-.84-8.82.81-22.68,1.01-32.53.11-5.49,4.53-12.69-.47-16.24-4.36-.03-10.39,29.79-11.14,34.52-4.94,31.16-1.96,78.64,6.78,109.05,5.13,17.84,10.53,28.58,31.08,26.92ZM477.98,497.62c-13.8.39-27.86-.82-40.94-5.6-2.16-.79-11.76-6.26-12.52-5.62,4.66,7.74,9.37,15.73,13.28,23.91,6.23,13.01,10.67,26.92,16.72,40.02,4.38-18.85,13.42-33.62,24.47-48.93l-1.79-1.77.78-2.01ZM575.06,552.57c5.9-15.14,19.14-25.1,27.3-38.66,2.82-4.69,9.56-14.25.41-15.16-11.57-1.15-23.34,22.79-36.33,22.3l-1.74-4.34c-14.24,19.6-32.03,39.11-44.05,60.24-1.14,2.01-.28,4.93-3.4,6.49-.16.85,1.03.7,1.64.57,1.2-.25,12.25-9.11,13.67-10.63,4.63-4.96,8.84-13,13.57-18.58,7.16-8.45,17.55-18.66,25.63-26.36,2.84-2.7,14.69-14.11,16.94-15.12,1.34-.61,2.06.3,1.61,1.65l-67.61,101.54c7.16.48,5.18-10.59,9.81-12.91,2.61-1.31,7.72-.64,7.7,2.76l1.55.05c1.91-3.66,6.62-4.76,8.78-6.68,3.29-2.92,9.74-12.34,13.64-14.07,1.51-.67,2.83.91,4.89-.42,1.54-1,3.18-3.93,4.87-5.17-2.39-3.78-5.75-.1-8.7-1.12,9.02-8.01,20.77-17.06,31.3-22.78,10.57-5.75,17.15-5,28.69-2.47-3.06-17.9-13.93-17.56-28.33-12.87-7.91,2.58-14.4,8.26-21.84,11.74ZM299.07,550.34c-1.88-.5-2.18.8-3.27,1.67-9.34,7.45-18.79,21.75-22.9,33.09,11.91,1.39,23.42,22.49,32.43,24.44,2.15.47,8.13,1.18,7.79-2.35-4.22-10.41-11.2-24.14-12.66-35.26-.95-7.2.82-14.61-1.38-21.58ZM612.14,567.18c-5.73-.51-11.13.34-16.35,2.8-13.03,6.13-28.83,29.28-36.89,41.71-.83,1.27-4.34,6-3.46,7.08,1.75-1.49,5.16-1.72,6.6-2.82,1.3-.99-.56-2.89.95-4.45,2.66-2.75,19.12-11.38,23.33-13.12,11.17-4.6,20.63-5.2,31.58-7.91,7.2-1.78,17.29-8.86,10.64-17.18-4.86-6.09-14.47-2.55-20.76-2.78l4.36-3.34ZM667.78,632.23c3.3-3.58-15.89-15.1-18.55-16.25-30.51-13.2-62.15-5.42-82.89,20.73,24.95-11.62,51.05-19.77,78.78-14.26,2.86.57,12.12,3.14,14.3,4.41,2.03,1.19,4.26,5.97,8.36,5.37ZM309.98,632.25c-6.21-.8-11.41-6.32-17.14-8.74-20.59-8.67-25.29-.38-28.66,19.94,5.56-1.83,10.3-5.03,16.14-6.39,8.13-1.9,16.45-1.49,24.63-2.71,1.22-.18,5.09-.4,5.03-2.1ZM462.71,650.17c1.43,1.47,6.16-6,6.75-7.07,5.49-9.9,7.36-20.85-6.75-20.43-1.3,4.24-9.1,8.83-10.36,11.82-.94,2.23-.31,4.66-.85,6.98-.1.43-3.43,6.03-1.36,5.34l14.72-10.09-2.17,13.45ZM300.17,685.52c-.67,11.52,0,24.22,0,35.9,0,2.07,2.57,14.12,3.34,16.76.38,1.31,1.62,4.92,3.2,5.11l2.37-29.54,5.26-22.06c-1.01,45.85,5.42,91.54,15.25,136.08l10.94,1.9c-8.21-51.78-15.57-107.82-2.95-159.52,3.9-15.95,9.42-30.1,21.5-41.26-14.41,2.01-35.5,10.05-46.36,20.18-6.31,5.89-27.49,36.84-29.48,44.84-1.4,5.64.68,17.59,7.11,19.1l9.84-32.52c2.85.16.03,4.29-.01,5.04ZM371.02,632.29c-2.12-1.49-7.4,4.39-8.67,6.12-7.02,9.63-9.27,24.71-8.72,36.46l9.79-21.31c5,14.35,12.99,27.9,25.09,37.01-.6-7.45-9.81-10.69-12.26-17.11-1.4-3.67-.52-8.16-1.9-12.05,7.55,8.08,17.35,19.4,29.44,17.39-17.76-10.43-27.48-26.51-32.78-46.51ZM475.8,660.28v16.27c0,.15-2.97,3.39,0,2.26l14.16-26.37c-.81,6.14-.54,13.17-1.57,19.12-1.67,9.71-7.89,17.37-9.02,26.62-.56,4.57-.26,9.13-.3,13.7,10.01-1.55-3.25-15.39,6.53-16.82.15,2.36-.35,4.89.07,7.22.19,1.07,1.9,5.83,3.2,6.23,4.68-20.72,5.79-42.12,7.58-63.31-.87-5.47-9.44-9.71-13.57-12.94-1.22.08-3.32,8.16-4.32,10.11-7.34,14.43-22.28,22.08-34.4,31.36,12.54.98,22.1-6.35,31.63-13.45ZM544.51,682.72l5.98,68.46c2.21,3.68,4.93-2.89,5.48-4.53,4.98-15.03,1.93-59.75-3.6-74.8-7.09-19.3-27.29-36.63-48.16-31.71l1.75,187.35,16.76,1.07-2.18-44.31,12-120.6,3.15,9.64c3.23,19.07-.39,38.45.12,57.65,2.77.96,2.92-3.37,3.14-5.16.88-7,1.73-15.3,2.3-22.33.55-6.81-2.51-17.14,3.27-20.74ZM660.13,682.71c.1-15.92-14.55-30.89-27.96-36.85-14.81-6.59-27.36-7.99-40.74,2.65,12.83,2.44,26.55.09,38.95,4.81,8.92,3.39,14.92,11.73,21.6,18.17l8.16,11.23ZM302.35,653.56c-2.34-2.22-18.25,14.44-20.19,16.8-7.75,9.4-17.39,25.83-19.92,37.86-.24,1.13-1.11,3.93.82,3.65,3.92-11.59,10.31-23.52,18.55-32.52-.56,3.81-3.41,6.49-4.88,10.11-3.7,9.07-5.66,19.31-6,29.15l12.14-28.44,19.48-36.61ZM661.24,750.02v-23c0-12.18-8.92-35.19-16.37-44.87-14.38-18.69-48.82-26.35-70.91-24.67l18.52,36.74c5.43,4.93,13.17,10.33,15.32,17.65,2.05.26.75-2.21.57-3.39-1.95-13.17-15.18-21.32-16.94-34.74l15.26,10.09-8.71-16.27c6.09-.41,14.77,5.27,19.53,9.08,20.76,16.61,33.33,46.09,41.43,70.75.57,1.75-.97,3.2,2.3,2.63ZM602.32,742.17c-6.17-25.08-19.11-55.22-36.02-74.57-1.09-1.25-8.51-9.72-9.78-8.44l24.18,37.38,15.24,34.81,6.38,10.81Z"/>
    <path class="st1" d="M641.62,402.26c-10.56-23.58-19.34-47.72-25.66-72.91-21.55-85.9-16.29-192.14-120.52-217.09-78.05-18.68-183.76,21.39-188.77,114.39-2.89,53.69,11.79,92.64,31.48,140.48,6.56,15.94,25.28,48.59,22.84,64.6-1.37,8.98-9.23,18.5-15.78,24.27-2.04.54-6.29-3.21-8.3-4.57-85.82-58.14-127.4-178.81-95.67-279.71,67.02-213.11,370.48-219.02,444.28-8.14,27.8,79.43,13.28,176.96-43.92,238.69Z"/>
    <path class="st1" d="M400.99,386.08c-17.16-16.12-33.04-32.98-36.44-57.87,7.14,4.86,20.42,2.44,20.71-7.85-3.64.75-5.57,4.5-9.51,5.34-13.67,2.92-13.44-5.47-18.65-15.08-2.28-4.2-4.81-8.43-7.8-12.15,3.75-3.92,10.64-2.49,15.3-1.17,16.36,4.64,22.65,21.49,24.92,37.2.96,6.66-.4,24.17,4.96,27.43,7.69,4.66,19.8-3.96,24.62-10.16-8.01,1.13-14.24,8.66-22.91,7.35-3.62-2.27-1.79-15.72-2.2-20.25-2.33-25.9-18.39-51.46-46.76-45.58-5.89-12.14-9.4-23.11-7.28-36.95,1.82-11.85,11.11-22.37,14.8-33.59.8-.62,10.39,6.94,12.35,8.04,18.2,10.26,38.82,9.27,58.55,13.82,31.32,7.23,64.95,32.88,75.57,64.76,6.12,18.37,6.92,24.35-1.21,42.02-9.55,20.74-32.09,44.56-52.91,53.29-21.22,8.9-31.72-5.11-46.09-18.61ZM467.06,287.85c-19.18-11.19-59.42-17.12-67.62,10.07,3.35-.49,4.47-4.4,7.11-6.69,18.23-15.81,37.7-6.85,56.96-2.53,1.1.25,3.83,1.13,3.55-.85ZM416.89,313.65c15.08,17.48,28.87,10.37,41.45-5.06,1.03-1.26,2.65-1.82,2.17-3.93-9.41,4.28-16.28,14.43-27.5,13.2-5.31-.58-10.56-4.46-16.12-4.21ZM413.62,380.94c1.49,5.35,9.38,6.67,13.91,4.76,7.8-3.3,7.4-13.97,14.46-18.21-3.74-.39-6.72,1.84-10.35,2.24-4.14.46-11.89-1.53-13.95-.97-2.25.61-4.41,5.22-6.29,6.07-2.39,1.08-4.62-1.81-6.5,1.07,3.49.58,5.92,3.67,8.72,5.04-.19-.67-.38-2.34.64-2.31l17.9-4.41c-2.74,10.73-9.84,10.98-18.54,6.72Z"/>
    <path class="st1" d="M485.6,551.45c-2.02.27-.81-2.26-.6-3.41,2.9-15.34,10.04-32.73,14.24-48.18,23.86-87.61,33.28-185.68-21.47-263.98-23.23-33.22-84.01-59.79-123.07-49.58-15.9,4.16-32.37,30.14-34.64,46.27-3.77,26.86,13.07,78.71,23.55,104.26,14.93,36.43,40.26,64.08,50.91,102.45,1.14,4.1,5.65,20.99,4.96,23.88-.25,1.08-2.14,1.18-2.67,1.98-3.89,5.88-3.82,4.07-7.77,7.76-2.4,2.24-1.65,6.19-4.87,5.65-1.16-9.16-3.4-18.28-5.77-27.17-17.84-66.78-55.33-117-63.89-187.82-15.58-128.75,102.88-142.11,173.31-62.69,31.6,35.63,46.54,86.06,51.23,133.54,7.54,76.28-25.5,148.82-53.46,217.06Z"/>
    <path class="st1" d="M403.62,467.54c.6.35,6.4,10.43,7.31,12.09,4.98,8.98,8.99,19.69,13.02,29.24,7.87,18.65,14.9,37.57,20.23,57.17,2.11-.74,1.11-6.47.94-8.26-2.56-26.53-23.38-56.03-32.58-80.92,1.27-1.87,2.34.31,3.08,1.32,6.58,8.94,15.37,28.22,20.01,38.88,14.26,32.78,20.89,66.23,23.61,102.04-5.54,6.22-11.63,13.47-18.68,17.85-9.08,5.64-11.59,7.15-18.77-1.33-15.69-18.53-20.02-70.72-23.73-95.63-.83-5.53-5.73-26.08-3.54-30.05,1.25-1.77,1.88-.76,2.5.83,8.27,21.41,11.21,46.07,21.52,66.49-.83-12.54-5.17-26.67-8.97-39.02-3.36-10.92-14.77-35.91-14.53-45.63.05-2.11,1.27-8.48,3.3-9.58.44,9.88,5.86,19.02,9.03,28.3,5.86,17.11,9.76,36.79,16.04,53.06,1.21,3.14,2.59,7.57,5.47,9.51-2.66-13.04-5.84-26.04-9.79-38.72-4.35-13.98-17.92-40.23-19.45-51.89-.36-2.79.21-4.43.9-6.99.55-.42,1.62,1.15,2.03,1.83,5.93,9.97,12.98,31.1,17.32,42.77,3.89,10.46,10.18,36.58,14.99,44.04.34.52.97,1.21,1.63,1.11,3.77-5.23-27.07-83.26-33.93-92.97l-5.31,2.1c-.29-3.5,1.98-10.2,6.35-7.64Z"/>
    <path class="st1" d="M544.51,682.72c-5.78,3.6-2.72,13.93-3.27,20.74-.57,7.03-1.41,15.33-2.3,22.33-.23,1.79-.37,6.12-3.14,5.16-.51-19.2,3.11-38.59-.12-57.65l-3.15-9.64-12,120.6,2.18,44.31-16.76-1.07-1.75-187.35c20.87-4.92,41.08,12.42,48.16,31.71,5.53,15.05,8.58,59.77,3.6,74.8-.54,1.64-3.26,8.22-5.48,4.53l-5.98-68.46Z"/>
    <path class="st1" d="M300.17,685.52c.04-.75,2.87-4.88.01-5.04l-9.84,32.52c-6.44-1.51-8.52-13.47-7.11-19.1,1.99-7.99,23.17-38.94,29.48-44.84,10.86-10.14,31.95-18.17,46.36-20.18-12.08,11.16-17.6,25.32-21.5,41.26-12.63,51.7-5.26,107.74,2.95,159.52l-10.94-1.9c-9.83-44.54-16.26-90.22-15.25-136.08l-5.26,22.06-2.37,29.54c-1.58-.19-2.82-3.8-3.2-5.11-.76-2.64-3.34-14.69-3.34-16.76,0-11.67-.67-24.38,0-35.9Z"/>
    <path class="st1" d="M369.98,450.5c2.25,15.1,11.14,29.66,9.52,45.12l-2.96,9.84-4.39-23.55c-.26-.34-1.3.57-1.64,1.11-6.23,9.9-6.96,56.17-5.97,68.99.99,12.79,6.26,24.89,7.61,37.6-5.76-.92-3.69-2.77-5.38-6.21-17.15-34.95-9.38-48.3-8.72-84.07.04-2.28.44-4.59-1.71-6.17-3.92,2.52-1.46,6.36-2.15,8.96-1.43,5.44-5.57,12.03-7.01,17.5-3.63,13.76-4.08,31.05-5.58,45.31-1.76-.52-2.69-4.46-3.28-6.15-4.37-12.59-3.82-26.6-4.35-39.84-2.14-.43-2.61,1.02-3.49,2.57-7.68,13.58-10.4,48.4-8.2,63.86.52,3.66,5.13,18.42,5,19.42-.99,7.18-8.44-4.47-9.41-7.02-7.22-19.12-7.97-53.94-2.12-73.47,6.32-21.1,30.99-55.88,47.67-69.89,1.01-.84,5.63-4.79,6.55-3.91Z"/>
    <path class="st1" d="M509.61,360.76c.45,15.12,1.91,30.3,1.14,45.47-.27,5.32-2.33,28.01-4.33,31.45-3.91,6.72-27.13,11.49-34.45,11.69-4.91.13-27.7-1.8-27.6-8.18,1.31-5.3,4.76-9.67,6.28-14.87,2.04-6.99,1.57-14.35,3.23-21.36,17.17-7.48,32.14-18.41,44.86-32.4,1.27-1.4,9.31-13.6,10.87-11.8Z"/>
    <path class="st1" d="M575.06,552.57c7.44-3.48,13.93-9.16,21.84-11.74,14.39-4.69,25.27-5.03,28.33,12.87-11.53-2.53-18.11-3.28-28.69,2.47-10.53,5.72-22.28,14.77-31.3,22.78,2.95,1.01,6.31-2.67,8.7,1.12-1.69,1.23-3.33,4.17-4.87,5.17-2.06,1.34-3.38-.24-4.89.42-3.9,1.73-10.35,11.15-13.64,14.07-2.16,1.92-6.87,3.02-8.78,6.68l-1.55-.05c.02-3.4-5.09-4.07-7.7-2.76-4.63,2.33-2.66,13.39-9.81,12.91l67.61-101.54c.46-1.36-.26-2.26-1.61-1.65-2.25,1.01-14.1,12.42-16.94,15.12-8.09,7.7-18.47,17.92-25.63,26.36-4.73,5.58-8.94,13.62-13.57,18.58-1.42,1.52-12.47,10.38-13.67,10.63-.61.13-1.8.28-1.64-.57,3.12-1.57,2.26-4.48,3.4-6.49,12.01-21.12,29.81-40.64,44.05-60.24l1.74,4.34c12.99.5,24.76-23.45,36.33-22.3,9.15.91,2.41,10.47-.41,15.16-8.16,13.56-21.4,23.53-27.3,38.66Z"/>
    <path class="st1" d="M496.52,128.52c-14.29-2.96-30.7-4.55-45.27-3.36-1.26.1-4.89.35-4.9,2.24l26.61,10.22c3.83,5.05,9.64,7.9,14.32,12.2,11.32,10.4,24.42,24.66,22.33,41.53-5.3.25-7.74-6.2-10.85-9.59-18.46-20.09-35.17-37.72-63.27-43.74-1.37-.29-6.4-1.77-6.58.59,5.86,3.34,13.57,7.46,18.87,11.45,4.73,3.55,9.02,9.29,13.27,12.16,3.98,2.68,8.57,2.32,11.95,7.91.82,1.35.61,3.49,1.68,5.1,1,1.49,6.2.66,5.49,4.9l-23.97-16.28c-27.94-16.04-61.04-24.42-92.74-16.26,17.53-15.05,40.12-25.01,62.86-27.89,18.21-2.3,46.28-1.19,63.68,4.9,2.28.8,5.51,1.27,6.54,3.92Z"/>
    <path class="st1" d="M417.98,646.81c-20.55,1.66-25.95-9.08-31.08-26.92-8.74-30.4-11.72-77.89-6.78-109.05.75-4.73,6.78-34.55,11.14-34.52,5,3.55.58,10.75.47,16.24-.2,9.85-1.85,23.71-1.01,32.53,2.62,27.46,7.83,68.47,16.07,94.54,3.11,9.86,8.92,17.51,11.19,27.19Z"/>
    <path class="st1" d="M503.06,450.5l-7.25,30.04c-12.54,10.15-50.7,8.65-63.33.49-11.55-7.47-4.64-28.04,4.76-34.85,18.78,12.46,45.16,11.02,65.82,4.32Z"/>
    <path class="st1" d="M661.24,750.02c-3.27.57-1.72-.89-2.3-2.63-8.1-24.66-20.67-54.14-41.43-70.75-4.76-3.81-13.44-9.49-19.53-9.08l8.71,16.27-15.26-10.09c1.76,13.42,14.99,21.56,16.94,34.74.17,1.18,1.48,3.65-.57,3.39-2.14-7.31-9.88-12.71-15.32-17.65l-18.52-36.74c22.09-1.68,56.53,5.99,70.91,24.67,7.45,9.67,16.37,32.69,16.37,44.87v23Z"/>
    <path class="st1" d="M612.14,567.18l-4.36,3.34c6.3.23,15.9-3.31,20.76,2.78,6.64,8.31-3.44,15.39-10.64,17.18-10.95,2.71-20.41,3.31-31.58,7.91-4.22,1.74-20.68,10.37-23.33,13.12-1.51,1.56.35,3.46-.95,4.45-1.45,1.1-4.85,1.33-6.6,2.82-.88-1.08,2.64-5.81,3.46-7.08,8.06-12.43,23.86-35.58,36.89-41.71,5.22-2.46,10.63-3.31,16.35-2.8Z"/>
    <path class="st1" d="M477.98,497.62l-.78,2.01,1.79,1.77c-11.04,15.31-20.08,30.08-24.47,48.93-6.05-13.1-10.48-27.01-16.72-40.02-3.92-8.18-8.62-16.17-13.28-23.91.76-.64,10.36,4.83,12.52,5.62,13.08,4.77,27.14,5.98,40.94,5.6Z"/>
    <path class="st1" d="M475.8,660.28c-9.53,7.1-19.1,14.43-31.63,13.45,12.12-9.28,27.06-16.93,34.4-31.36.99-1.96,3.09-10.04,4.32-10.11,4.13,3.23,12.71,7.47,13.57,12.94-1.79,21.19-2.9,42.59-7.58,63.31-1.29-.4-3-5.17-3.2-6.23-.42-2.33.08-4.86-.07-7.22-9.78,1.43,3.48,15.26-6.53,16.82.05-4.57-.26-9.13.3-13.7,1.13-9.25,7.35-16.91,9.02-26.62,1.03-5.96.76-12.99,1.57-19.12l-14.16,26.37c-2.98,1.13,0-2.11,0-2.26v-16.27Z"/>
    <path class="st1" d="M299.07,550.34c2.2,6.97.44,14.38,1.38,21.58,1.47,11.12,8.44,24.85,12.66,35.26.34,3.53-5.64,2.82-7.79,2.35-9.01-1.95-20.52-23.05-32.43-24.44,4.11-11.33,13.56-25.64,22.9-33.09,1.09-.87,1.39-2.17,3.27-1.67Z"/>
    <path class="st1" d="M569.54,407.92c3.19,2.06-.93,22.39-1.95,26.48-5.31,21.19-15.6,44.85-25.44,63.58l-9.62,14.21c2.51-10.66,6.9-21.07,10.1-31.67,5.43-18.04,9.41-36.52,16.05-54.17,1.17-3.1,6.05-16.31,7.57-17.77.93-.88,2.44-1.22,3.29-.67Z"/>
    <path class="st1" d="M667.78,632.23c-4.1.6-6.32-4.18-8.36-5.37-2.18-1.27-11.44-3.84-14.3-4.41-27.73-5.5-53.83,2.64-78.78,14.26,20.74-26.15,52.38-33.93,82.89-20.73,2.66,1.15,21.85,12.68,18.55,16.25Z"/>
    <path class="st1" d="M371.02,632.29c5.3,20,15.02,36.08,32.78,46.51-12.09,2.01-21.88-9.31-29.44-17.39,1.38,3.9.5,8.38,1.9,12.05,2.45,6.43,11.66,9.66,12.26,17.11-12.1-9.11-20.09-22.66-25.09-37.01l-9.79,21.31c-.56-11.75,1.7-26.83,8.72-36.46,1.26-1.73,6.55-7.6,8.67-6.12Z"/>
    <path class="st1" d="M660.13,682.71l-8.16-11.23c-6.68-6.44-12.69-14.78-21.6-18.17-12.4-4.72-26.12-2.37-38.95-4.81,13.38-10.64,25.94-9.24,40.74-2.65,13.41,5.96,28.06,20.93,27.96,36.85Z"/>
    <path class="st1" d="M302.35,653.56l-19.48,36.61-12.14,28.44c.35-9.84,2.3-20.08,6-29.15,1.48-3.62,4.32-6.3,4.88-10.11-8.24,9.01-14.62,20.93-18.55,32.52-1.93.28-1.06-2.52-.82-3.65,2.53-12.03,12.16-28.47,19.92-37.86,1.95-2.36,17.86-19.02,20.19-16.8Z"/>
    <path class="st1" d="M309.98,632.25c.06,1.69-3.81,1.91-5.03,2.1-8.18,1.23-16.5.81-24.63,2.71-5.83,1.37-10.57,4.56-16.14,6.39,3.37-20.31,8.07-28.61,28.66-19.94,5.73,2.42,10.93,7.94,17.14,8.74Z"/>
    <path class="st1" d="M462.71,650.17l2.17-13.45-14.72,10.09c-2.07.69,1.26-4.9,1.36-5.34.53-2.33-.1-4.75.85-6.98,1.26-2.98,9.05-7.57,10.36-11.82,14.1-.42,12.23,10.53,6.75,20.43-.59,1.07-5.32,8.54-6.75,7.07Z"/>
    <path class="st1" d="M602.32,742.17l-6.38-10.81-15.24-34.81-24.18-37.38c1.27-1.28,8.69,7.19,9.78,8.44,16.9,19.34,29.85,49.49,36.02,74.57Z"/>
    <path class="st1" d="M460.52,242.95c-6.53-.92-13.86-4.89-20.31-5.49-18.18-1.7-36.64-2.52-54.72-7.64-2.13-.6-6.75-1.67-7.87-3.67,12.74,2.2,25.88,2.74,38.58,4.61,14.16,2.09,33.21,3.23,44.31,12.19Z"/>
    <path d="M413.62,380.94c-2.8-1.37-5.23-4.46-8.72-5.04,1.88-2.88,4.11,0,6.5-1.07,1.88-.85,4.04-5.46,6.29-6.07,2.06-.56,9.8,1.42,13.95.97,3.63-.4,6.61-2.62,10.35-2.24-7.05,4.23-6.65,14.91-14.46,18.21-4.53,1.91-12.42.59-13.91-4.76,8.7,4.26,15.8,4.01,18.54-6.72l-17.9,4.41c-1.02-.02-.83,1.64-.64,2.31Z"/>
    <path d="M467.06,287.85c.28,1.98-2.45,1.1-3.55.85-19.26-4.33-38.73-13.28-56.96,2.53-2.65,2.3-3.77,6.21-7.11,6.69,8.2-27.19,48.44-21.26,67.62-10.07Z"/>
    <path d="M416.89,313.65c5.56-.25,10.81,3.63,16.12,4.21,11.22,1.23,18.09-8.91,27.5-13.2.48,2.11-1.14,2.67-2.17,3.93-12.59,15.43-26.38,22.53-41.45,5.06Z"/>
  </g>
  <path class="st1" d="M873.81,0v1080H207V0h666.81ZM499.59,1.84c-117.15,7.69-215.93,76.08-264.41,182.42-65.81,144.36-6.24,315.25,122.51,400.63,6.14,7.33-11.59,26.12-16.21,33.6-15.05,24.33-27.13,49.26-44.34,72.4-14.07,18.91-31.74,34.5-38.25,58.55-2.2,8.13-2.57,16.7-4.92,24.99-10.56,37.11-29.51,64.88-32.72,106.84-3.65,47.66,14.87,126.13,35.7,169.35,7.09,14.7,18.12,17.02,33.41,19.24,38.71,5.61,78.83,4.82,117.89,5.81,122.37,3.12,247.39,4.78,369.61-1.35,22.72-1.14,69.7-2.92,88.71-15.11,7.96-5.11,4.32-15.44,4.33-22.61.12-107.76,3.82-242.77-26.24-345.57-17.45-59.7-42.39-93.05-73.81-144.03-2.56-4.16-13.76-21.6-13.77-24.82-.02-4.1,11.08-14.39,14.33-18.55,110.31-141.46,77.97-356.16-74.02-452.93C640.34,14.38,567.09-2.59,499.59,1.84Z"/>
  <path d="M499.59,1.84c67.5-4.43,140.75,12.54,197.8,48.86,151.99,96.77,184.32,311.47,74.02,452.93-3.24,4.16-14.35,14.45-14.33,18.55.02,3.21,11.21,20.66,13.77,24.82,31.42,50.98,56.35,84.33,73.81,144.03,30.06,102.8,26.36,237.81,26.24,345.57,0,7.17,3.63,17.5-4.33,22.61-19.01,12.19-66,13.97-88.71,15.11-122.22,6.13-247.24,4.47-369.61,1.35-39.07-1-79.19-.21-117.89-5.81-15.29-2.21-26.32-4.54-33.41-19.24-20.83-43.22-39.34-121.7-35.7-169.35,3.21-41.96,22.16-69.73,32.72-106.84,2.36-8.29,2.72-16.86,4.92-24.99,6.52-24.05,24.18-39.65,38.25-58.55,17.21-23.13,29.29-48.07,44.34-72.4,4.62-7.47,22.35-26.27,16.21-33.6-128.74-85.37-188.31-256.26-122.51-400.63C283.66,77.93,382.44,9.53,499.59,1.84ZM752.97,510.08c74.55-78.41,93.47-202.27,57.24-303.15C714.03-60.91,318.49-53.4,231.15,217.26c-41.36,128.15,12.84,281.41,124.69,355.25,2.63,1.74,8.17,6.49,10.82,5.81,8.53-7.32,18.77-19.41,20.56-30.82,3.19-20.34-21.21-61.81-29.77-82.05-25.67-60.75-44.81-110.22-41.04-178.41,6.53-118.12,144.31-169.02,246.04-145.29,135.85,31.69,128.99,166.62,157.08,275.73,8.24,31.99,19.68,62.65,33.44,92.6ZM563.86,162.41c-1.34-3.36-5.54-3.97-8.52-4.98-22.68-7.73-59.26-9.15-83-6.22-29.64,3.65-59.08,16.3-81.93,35.42,41.32-10.37,84.46.27,120.88,20.65l31.24,20.68c.92-5.39-5.86-4.34-7.16-6.23-1.4-2.04-1.13-4.76-2.19-6.47-4.4-7.1-10.39-6.64-15.57-10.04-5.54-3.64-11.13-10.93-17.29-15.44-6.91-5.06-16.95-10.3-24.6-14.54.24-3,6.8-1.13,8.58-.76,36.63,7.65,58.41,30.04,82.47,55.56,4.06,4.3,7.23,12.5,14.14,12.18,2.73-21.43-14.34-39.54-29.1-52.75-6.1-5.46-13.68-9.07-18.66-15.49l-34.68-12.98c0-2.4,4.73-2.71,6.38-2.84,18.99-1.51,40.38.51,59.01,4.27ZM549.63,699.57c36.43-86.66,79.5-178.79,69.67-275.68-6.12-60.3-25.58-124.34-66.77-169.6-91.8-100.86-246.2-83.9-225.89,79.62,11.17,89.95,60.03,153.73,83.28,238.55,3.09,11.29,6.01,22.87,7.52,34.51,4.2.69,3.22-4.33,6.35-7.17,5.16-4.68,5.05-2.39,10.13-9.86.69-1.02,3.15-1.14,3.48-2.51.89-3.67-4.99-25.12-6.47-30.33-13.89-48.74-46.9-83.86-66.36-130.12-13.65-32.45-35.6-98.31-30.69-132.42,2.95-20.49,24.42-53.49,45.15-58.77,50.91-12.97,130.13,20.77,160.41,62.97,71.37,99.44,59.08,224,27.99,335.28-5.48,19.62-14.79,41.71-18.56,61.2-.28,1.47-1.86,4.67.78,4.34ZM439.34,489.54c18.74,17.15,32.42,34.94,60.08,23.64s56.51-41.34,68.96-67.68c10.6-22.44,9.56-30.05,1.58-53.37-13.84-40.48-57.67-73.06-98.49-82.24-25.73-5.79-52.6-4.52-76.32-17.56-2.55-1.4-15.04-11-16.09-10.21-4.81,14.25-16.91,27.62-19.29,42.67-2.77,17.58,1.81,31.51,9.49,46.93,36.97-7.47,57.91,24.99,60.94,57.89.53,5.74-1.85,22.83,2.87,25.71,11.3,1.66,19.41-7.9,29.85-9.34-6.28,7.88-22.07,18.82-32.08,12.9-6.99-4.13-5.21-26.37-6.47-34.84-2.96-19.95-11.15-41.35-32.47-47.25-6.07-1.68-15.05-3.49-19.94,1.48,3.9,4.72,7.2,10.1,10.17,15.43,6.79,12.21,6.5,22.86,24.31,19.15,5.14-1.07,7.65-5.83,12.4-6.79-.38,13.06-17.69,16.14-26.99,9.97,4.43,31.61,25.14,53.02,47.5,73.49ZM516.94,307.74c-14.48-11.38-39.3-12.83-57.76-15.48-16.56-2.38-33.68-3.07-50.29-5.86,1.46,2.54,7.48,3.89,10.26,4.66,23.57,6.51,47.63,7.55,71.33,9.71,8.41.76,17.95,5.8,26.47,6.97ZM580.92,457.37c-2.04-2.29-12.52,13.22-14.17,14.99-16.58,17.77-36.09,31.64-58.46,41.15-2.17,8.9-1.55,18.25-4.21,27.13-1.98,6.6-6.48,12.15-8.18,18.88-.14,8.1,29.56,10.55,35.97,10.39,9.54-.25,39.8-6.31,44.9-14.84,2.61-4.37,5.29-33.18,5.64-39.94,1-19.27-.91-38.55-1.49-57.76ZM659.03,517.27c-1.11-.7-3.08-.27-4.29.85-1.98,1.84-8.34,18.62-9.86,22.56-8.66,22.41-13.84,45.88-20.92,68.8-4.16,13.46-9.88,26.68-13.16,40.22l12.54-18.05c12.82-23.79,26.23-53.84,33.16-80.75,1.34-5.19,6.7-31.02,2.54-33.63ZM572.38,571.35c-26.94,8.51-61.32,10.35-85.79-5.48-12.25,8.64-21.25,34.78-6.2,44.26,16.46,10.37,66.19,12.27,82.54-.62l9.45-38.15ZM398.93,571.35c-1.2-1.11-7.23,3.89-8.54,4.97-21.74,17.79-53.89,61.96-62.14,88.76-7.63,24.8-6.65,69.03,2.77,93.31,1.26,3.25,10.97,18.03,12.26,8.92.18-1.26-5.83-20.01-6.51-24.66-2.87-19.64.68-63.87,10.69-81.11,1.14-1.97,1.77-3.81,4.55-3.26.7,16.81-.03,34.61,5.67,50.59.76,2.14,1.98,7.14,4.27,7.81,1.96-18.11,2.54-40.07,7.27-57.55,1.88-6.94,7.28-15.31,9.14-22.22.89-3.3-2.31-8.18,2.8-11.38,2.79,2,2.28,4.94,2.22,7.83-.86,45.44-10.99,62.39,11.36,106.78,2.2,4.37-.49,6.72,7.01,7.89-1.75-16.14-8.63-31.51-9.92-47.75-1.29-16.27-.34-75.04,7.78-87.62.44-.68,1.79-1.84,2.13-1.41l5.72,29.91,3.86-12.5c2.11-19.64-9.48-38.14-12.41-57.31ZM442.77,592.99c-5.69-3.26-8.66,5.26-8.27,9.7l6.92-2.67c8.95,12.34,49.14,111.44,44.23,118.08-.87.13-1.69-.75-2.13-1.41-6.28-9.46-14.47-42.65-19.54-55.93-5.66-14.81-14.85-41.65-22.57-54.32-.53-.87-1.92-2.86-2.64-2.32-.9,3.25-1.64,5.33-1.17,8.87,1.99,14.81,19.68,48.14,25.35,65.9,5.15,16.11,9.29,32.63,12.75,49.18-3.75-2.46-5.54-8.08-7.13-12.08-8.19-20.66-13.27-45.66-20.91-67.39-4.14-11.78-11.2-23.39-11.77-35.94-2.64,1.4-4.23,9.49-4.3,12.17-.32,12.34,14.56,44.07,18.93,57.95,4.94,15.68,10.61,33.63,11.69,49.56-13.45-25.93-17.27-57.26-28.05-84.45-.8-2.02-1.63-3.31-3.25-1.06-2.86,5.05,3.54,31.14,4.61,38.16,4.84,31.63,10.49,97.92,30.93,121.45,9.35,10.77,12.62,8.85,24.46,1.68,9.18-5.56,17.13-14.77,24.35-22.67-3.53-45.48-12.18-87.97-30.77-129.6-6.05-13.55-17.5-38.03-26.08-49.38-.97-1.28-2.36-4.05-4.02-1.67,11.99,31.62,39.13,69.08,42.46,102.78.22,2.27,1.53,9.55-1.22,10.49-6.95-24.9-16.11-48.92-26.37-72.61-5.25-12.13-10.47-25.73-16.97-37.14-1.19-2.1-8.75-14.9-9.53-15.35ZM461.49,820.68c-2.96-12.28-10.53-22.01-14.59-34.53-10.73-33.11-17.52-85.2-20.94-120.07-1.1-11.21,1.05-28.81,1.31-41.32.15-6.97,5.91-16.11-.61-20.62-5.68-.04-13.54,37.84-14.52,43.84-6.44,39.57-2.56,99.88,8.83,138.5,6.68,22.66,13.73,36.3,40.51,34.19ZM539.7,631.2c-17.98.49-36.31-1.05-53.35-7.11-2.81-1-15.33-7.96-16.32-7.14,6.08,9.83,12.21,19.98,17.31,30.36,8.13,16.53,13.9,34.19,21.79,50.83,5.71-23.95,17.49-42.7,31.89-62.14l-2.34-2.25,1.02-2.55ZM666.23,700.99c7.69-19.22,24.95-31.88,35.58-49.1,3.67-5.96,12.46-18.1.53-19.25-15.08-1.46-30.42,28.95-47.35,28.32l-2.27-5.52c-18.56,24.89-41.75,49.68-57.41,76.51-1.49,2.55-.37,6.26-4.43,8.25-.2,1.08,1.35.89,2.14.73,1.57-.32,15.97-11.57,17.82-13.5,6.03-6.3,11.53-16.51,17.69-23.59,9.33-10.73,22.87-23.7,33.41-33.48,3.7-3.43,19.15-17.92,22.08-19.2,1.75-.77,2.69.38,2.09,2.1l-88.13,128.96c9.33.61,6.75-13.45,12.79-16.4,3.41-1.67,10.07-.81,10.04,3.51l2.02.06c2.49-4.65,8.62-6.05,11.44-8.49,4.29-3.71,12.7-15.68,17.78-17.87,1.96-.85,3.69,1.16,6.38-.54,2.01-1.27,4.15-5,6.35-6.56-3.11-4.81-7.5-.13-11.34-1.42,11.76-10.17,27.07-21.67,40.79-28.93,13.78-7.3,22.36-6.36,37.39-3.14-3.99-22.73-18.16-22.3-36.92-16.34-10.31,3.27-18.77,10.5-28.47,14.91ZM306.51,698.16c-2.45-.63-2.84,1.02-4.26,2.12-12.18,9.46-24.49,27.63-29.84,42.02,15.52,1.77,30.53,28.56,42.26,31.04,2.8.59,10.59,1.5,10.15-2.98-5.5-13.22-14.59-30.65-16.5-44.78-1.24-9.15,1.06-18.55-1.8-27.41ZM714.56,719.54c-7.46-.65-14.51.43-21.31,3.55-16.98,7.79-37.58,37.18-48.08,52.98-1.08,1.62-5.65,7.63-4.51,9,2.28-1.89,6.72-2.18,8.61-3.58,1.7-1.26-.73-3.67,1.24-5.65,3.46-3.49,24.92-14.46,30.41-16.66,14.56-5.85,26.88-6.6,41.16-10.05,9.39-2.26,22.53-11.26,13.87-21.82-6.34-7.73-18.85-3.23-27.06-3.53l5.68-4.25ZM787.07,802.16c4.3-4.54-20.71-19.18-24.17-20.64-39.77-16.76-81.01-6.88-108.04,26.33,32.52-14.76,66.54-25.1,102.68-18.11,3.73.72,15.79,3.98,18.64,5.6,2.65,1.51,5.55,7.58,10.89,6.82ZM320.73,802.18c-8.09-1.01-14.87-8.03-22.34-11.1-26.83-11.01-32.96-.48-37.35,25.32,7.25-2.33,13.43-6.38,21.03-8.12,10.6-2.42,21.45-1.89,32.11-3.44,1.59-.23,6.63-.51,6.56-2.66ZM519.79,824.95c1.86,1.87,8.03-7.62,8.8-8.98,7.15-12.57,9.59-26.48-8.79-25.95-1.7,5.39-11.86,11.22-13.5,15.01-1.23,2.84-.41,5.92-1.1,8.87-.13.55-4.47,7.66-1.77,6.78l19.19-12.81-2.83,17.08ZM307.95,869.84c-.87,14.63,0,30.77,0,45.59,0,2.62,3.36,17.94,4.35,21.29.49,1.66,2.11,6.24,4.17,6.49l3.09-37.51,6.86-28.01c-1.32,58.23,7.07,116.26,19.88,172.83l14.26,2.41c-10.7-65.76-20.3-136.94-3.84-202.61,5.08-20.26,12.28-38.23,28.02-52.41-18.78,2.55-46.27,12.76-60.42,25.63-8.23,7.49-35.84,46.79-38.43,56.94-1.83,7.16.88,22.35,9.27,24.26l12.82-41.3c3.72.2.04,5.45-.02,6.4ZM400.28,802.23c-2.76-1.89-9.65,5.57-11.3,7.77-9.15,12.23-12.09,31.38-11.36,46.3l12.76-27.06c6.52,18.23,16.94,35.43,32.7,47.01-.78-9.46-12.78-13.57-15.98-21.73-1.82-4.66-.68-10.36-2.48-15.31,9.84,10.27,22.62,24.64,38.37,22.09-23.15-13.25-35.82-33.67-42.72-59.07ZM536.85,837.78v20.66c0,.18-3.88,4.3,0,2.86l18.46-33.49c-1.06,7.79-.71,16.72-2.04,24.29-2.18,12.33-10.28,22.07-11.76,33.81-.73,5.8-.33,11.59-.39,17.4,13.05-1.97-4.23-19.55,8.52-21.36.2,2.99-.46,6.21.09,9.17.25,1.35,2.48,7.4,4.16,7.92,6.09-26.32,7.54-53.49,9.88-80.41-1.13-6.95-12.3-12.33-17.69-16.44-1.59.1-4.33,10.36-5.62,12.84-9.56,18.33-29.04,28.04-44.84,39.83,16.34,1.24,28.8-8.07,41.23-17.08ZM626.41,866.29l7.79,86.95c2.88,4.68,6.43-3.67,7.14-5.76,6.49-19.09,2.51-75.89-4.69-95.01-9.24-24.51-35.57-46.52-62.78-40.28l2.28,237.95,21.84,1.36-2.84-56.27,15.64-153.17,4.1,12.25c4.21,24.22-.51,48.84.15,73.22,3.61,1.22,3.8-4.28,4.1-6.55,1.15-8.89,2.25-19.43,2.99-28.36.71-8.65-3.27-21.76,4.26-26.34ZM777.11,866.27c.13-20.22-18.97-39.23-36.44-46.81-19.3-8.37-35.67-10.15-53.11,3.37,16.72,3.1,34.6.12,50.76,6.11,11.62,4.31,19.45,14.9,28.16,23.08l10.63,14.26ZM310.79,829.25c-3.04-2.82-23.78,18.35-26.32,21.34-10.11,11.93-22.66,32.81-25.96,48.09-.31,1.44-1.44,5,1.07,4.64,5.11-14.73,13.44-29.87,24.17-41.31-.73,4.84-4.44,8.24-6.37,12.84-4.83,11.52-7.37,24.52-7.82,37.02l15.83-36.12,25.39-46.49ZM778.55,951.77v-29.21c0-15.47-11.63-44.7-21.33-56.99-18.75-23.73-63.63-33.47-92.42-31.34l24.14,46.67c7.08,6.27,17.17,13.12,19.97,22.41,2.67.33.98-2.81.75-4.31-2.55-16.73-19.79-27.08-22.08-44.12l19.89,12.81-11.36-20.66c7.94-.52,19.25,6.69,25.46,11.53,27.05,21.09,43.44,58.54,54,89.86.75,2.22-1.26,4.06,3,3.34ZM701.76,941.79c-8.04-31.85-24.91-70.14-46.94-94.7-1.42-1.58-11.09-12.35-12.75-10.72l31.52,47.48,19.86,44.21,8.31,13.73Z"/>
  <path class="st1" d="M752.97,510.08c-13.76-29.94-25.2-60.61-33.44-92.6-28.09-109.1-21.23-244.04-157.08-275.73-101.73-23.73-239.51,27.17-246.04,145.29-3.77,68.2,15.37,117.67,41.04,178.41,8.55,20.24,32.96,61.71,29.77,82.05-1.79,11.41-12.03,23.5-20.56,30.82-2.66.68-8.19-4.07-10.82-5.81-111.85-73.84-166.05-227.1-124.69-355.25,87.35-270.66,482.88-278.17,579.07-10.34,36.23,100.88,17.31,224.75-57.24,303.15Z"/>
  <path class="st0" d="M439.34,489.54c-22.36-20.47-43.06-41.88-47.5-73.49,9.3,6.17,26.62,3.09,26.99-9.97-4.75.96-7.26,5.72-12.4,6.79-17.82,3.71-17.52-6.94-24.31-19.15-2.97-5.33-6.27-10.71-10.17-15.43,4.89-4.98,13.87-3.16,19.94-1.48,21.32,5.89,29.52,27.3,32.47,47.25,1.26,8.46-.52,30.7,6.47,34.84,10.02,5.92,25.8-5.02,32.08-12.9-10.44,1.44-18.56,11-29.85,9.34-4.72-2.88-2.34-19.97-2.87-25.71-3.04-32.9-23.97-65.35-60.94-57.89-7.67-15.42-12.26-29.35-9.49-46.93,2.37-15.05,14.48-28.42,19.29-42.67,1.05-.79,13.54,8.81,16.09,10.21,23.72,13.04,50.59,11.77,76.32,17.56,40.83,9.19,84.65,41.76,98.49,82.24,7.98,23.33,9.02,30.93-1.58,53.37-12.44,26.34-41.82,56.59-68.96,67.68s-41.34-6.49-60.08-23.64ZM525.46,364.77c-25-14.21-77.45-21.74-88.14,12.79,4.36-.62,5.82-5.59,9.27-8.5,23.76-20.07,49.14-8.71,74.24-3.21,1.43.31,4.99,1.44,4.63-1.08ZM460.07,397.53c19.65,22.2,37.62,13.17,54.03-6.42,1.34-1.6,3.45-2.32,2.83-4.99-12.27,5.44-21.22,18.33-35.85,16.76-6.92-.74-13.77-5.66-21.01-5.35ZM455.81,483.01c1.94,6.79,12.22,8.47,18.12,6.04,10.17-4.19,9.65-17.75,18.84-23.12-4.88-.49-8.76,2.33-13.49,2.84-5.4.58-15.5-1.94-18.18-1.23-2.93.78-5.75,6.63-8.2,7.71-3.11,1.37-6.02-2.3-8.47,1.36,4.54.74,7.72,4.66,11.37,6.4-.24-.86-.49-2.97.84-2.94l23.33-5.6c-3.58,13.63-12.83,13.94-24.17,8.53Z"/>
  <path class="st1" d="M549.63,699.57c-2.64.34-1.06-2.87-.78-4.34,3.77-19.48,13.08-41.57,18.56-61.2,31.1-111.27,43.38-235.83-27.99-335.28-30.28-42.19-109.5-75.94-160.41-62.97-20.72,5.28-42.2,38.27-45.15,58.77-4.91,34.11,17.04,99.96,30.69,132.42,19.46,46.26,52.47,81.38,66.36,130.12,1.48,5.21,7.36,26.66,6.47,30.33-.33,1.37-2.79,1.49-3.48,2.51-5.08,7.47-4.97,5.17-10.13,9.86-3.13,2.84-2.15,7.87-6.35,7.17-1.51-11.64-4.43-23.22-7.52-34.51-23.25-84.82-72.11-148.6-83.28-238.55-20.3-163.53,134.1-180.49,225.89-79.62,41.19,45.26,60.66,109.3,66.77,169.6,9.83,96.89-33.24,189.02-69.67,275.68Z"/>
  <path class="st0" d="M442.77,592.99c.78.45,8.34,13.25,9.53,15.35,6.49,11.41,11.72,25.01,16.97,37.14,10.25,23.69,19.42,47.71,26.37,72.61,2.75-.95,1.45-8.22,1.22-10.49-3.33-33.7-30.47-71.16-42.46-102.78,1.66-2.37,3.05.39,4.02,1.67,8.57,11.35,20.03,35.84,26.08,49.38,18.59,41.63,27.23,84.12,30.77,129.6-7.22,7.9-15.16,17.11-24.35,22.67-11.84,7.17-15.11,9.08-24.46-1.68-20.45-23.53-26.09-89.82-30.93-121.45-1.08-7.02-7.47-33.12-4.61-38.16,1.63-2.25,2.45-.96,3.25,1.06,10.78,27.19,14.61,58.51,28.05,84.45-1.08-15.92-6.74-33.87-11.69-49.56-4.38-13.88-19.25-45.61-18.93-57.95.07-2.68,1.66-10.77,4.3-12.17.57,12.55,7.63,24.16,11.77,35.94,7.64,21.73,12.72,46.73,20.91,67.39,1.58,3.99,3.38,9.62,7.13,12.08-3.47-16.56-7.61-33.07-12.75-49.18-5.67-17.76-23.36-51.09-25.35-65.9-.48-3.54.27-5.63,1.17-8.87.72-.54,2.11,1.46,2.64,2.32,7.73,12.67,16.92,39.5,22.57,54.32,5.07,13.28,13.27,46.47,19.54,55.93.44.66,1.26,1.54,2.13,1.41,4.91-6.64-35.28-105.74-44.23-118.08l-6.92,2.67c-.38-4.44,2.58-12.96,8.27-9.7Z"/>
  <path class="st1" d="M626.41,866.29c-7.53,4.57-3.55,17.69-4.26,26.34-.74,8.93-1.84,19.47-2.99,28.36-.29,2.27-.48,7.77-4.1,6.55-.66-24.39,4.06-49.01-.15-73.22l-4.1-12.25-15.64,153.17,2.84,56.27-21.84-1.36-2.28-237.95c27.2-6.25,53.54,15.77,62.78,40.28,7.2,19.11,11.18,75.92,4.69,95.01-.71,2.09-4.25,10.44-7.14,5.76l-7.79-86.95Z"/>
  <path class="st1" d="M307.95,869.84c.06-.95,3.74-6.2.02-6.4l-12.82,41.3c-8.39-1.91-11.1-17.1-9.27-24.26,2.59-10.15,30.2-49.46,38.43-56.94,14.16-12.88,41.65-23.08,60.42-25.63-15.74,14.17-22.94,32.15-28.02,52.41-16.46,65.66-6.86,136.84,3.84,202.61l-14.26-2.41c-12.81-56.57-21.19-114.59-19.88-172.83l-6.86,28.01-3.09,37.51c-2.06-.25-3.67-4.83-4.17-6.49-.99-3.35-4.35-18.66-4.35-21.29,0-14.83-.87-30.97,0-45.59Z"/>
  <path class="st1" d="M398.93,571.35c2.93,19.17,14.52,37.67,12.41,57.31l-3.86,12.5-5.72-29.91c-.35-.43-1.69.73-2.13,1.41-8.12,12.58-9.07,71.34-7.78,87.62,1.29,16.24,8.17,31.61,9.92,47.75-7.5-1.17-4.81-3.52-7.01-7.89-22.36-44.4-12.23-61.34-11.36-106.78.05-2.9.57-5.83-2.22-7.83-5.11,3.2-1.91,8.08-2.8,11.38-1.86,6.91-7.26,15.28-9.14,22.22-4.73,17.48-5.31,39.44-7.27,57.55-2.29-.67-3.51-5.67-4.27-7.81-5.7-15.99-4.97-33.78-5.67-50.59-2.78-.55-3.4,1.29-4.55,3.26-10.01,17.25-13.56,61.47-10.69,81.11.68,4.65,6.69,23.4,6.51,24.66-1.29,9.11-11.01-5.67-12.26-8.92-9.42-24.28-10.39-68.51-2.77-93.31,8.24-26.8,40.39-70.97,62.14-88.76,1.31-1.07,7.34-6.08,8.54-4.97Z"/>
  <path class="st0" d="M580.92,457.37c.58,19.21,2.49,38.48,1.49,57.76-.35,6.76-3.03,35.57-5.64,39.94-5.1,8.53-35.36,14.6-44.9,14.84-6.4.17-36.1-2.29-35.97-10.39,1.7-6.73,6.2-12.28,8.18-18.88,2.66-8.88,2.04-18.23,4.21-27.13,22.38-9.5,41.89-23.38,58.46-41.15,1.65-1.77,12.14-17.28,14.17-14.99Z"/>
  <path class="st1" d="M666.23,700.99c9.7-4.41,18.16-11.64,28.47-14.91,18.76-5.96,32.93-6.39,36.92,16.34-15.03-3.22-23.61-4.16-37.39,3.14-13.72,7.27-29.04,18.77-40.79,28.93,3.84,1.29,8.23-3.39,11.34,1.42-2.2,1.57-4.34,5.29-6.35,6.56-2.68,1.7-4.41-.31-6.38.54-5.08,2.19-13.5,14.16-17.78,17.87-2.82,2.44-8.96,3.84-11.44,8.49l-2.02-.06c.03-4.32-6.63-5.17-10.04-3.51-6.04,2.95-3.46,17.01-12.79,16.4l88.13-128.96c.59-1.72-.34-2.87-2.09-2.1-2.93,1.29-18.38,15.77-22.08,19.2-10.54,9.78-24.08,22.76-33.41,33.48-6.16,7.08-11.66,17.3-17.69,23.59-1.85,1.93-16.25,13.18-17.82,13.5-.8.16-2.35.35-2.14-.73,4.06-1.99,2.94-5.7,4.43-8.25,15.66-26.83,38.85-51.61,57.41-76.51l2.27,5.52c16.93.63,32.28-29.78,47.35-28.32,11.93,1.16,3.14,13.29-.53,19.25-10.63,17.23-27.89,29.88-35.58,49.1Z"/>
  <path class="st1" d="M563.86,162.41c-18.63-3.75-40.02-5.78-59.01-4.27-1.65.13-6.37.44-6.38,2.84l34.68,12.98c4.99,6.42,12.56,10.03,18.66,15.49,14.76,13.21,31.83,31.32,29.1,52.75-6.91.32-10.08-7.88-14.14-12.18-24.06-25.52-45.84-47.91-82.47-55.56-1.78-.37-8.34-2.25-8.58.76,7.64,4.24,17.69,9.48,24.6,14.54,6.16,4.51,11.75,11.8,17.29,15.44,5.18,3.4,11.17,2.94,15.57,10.04,1.06,1.71.79,4.44,2.19,6.47,1.3,1.89,8.08.84,7.16,6.23l-31.24-20.68c-36.42-20.37-79.56-31.02-120.88-20.65,22.85-19.12,52.29-31.77,81.93-35.42,23.74-2.93,60.32-1.51,83,6.22,2.98,1.01,7.18,1.62,8.52,4.98Z"/>
  <path class="st0" d="M461.49,820.68c-26.78,2.11-33.83-11.54-40.51-34.19-11.39-38.62-15.28-98.93-8.83-138.5.98-6,8.84-43.88,14.52-43.84,6.52,4.51.76,13.65.61,20.62-.26,12.51-2.41,30.11-1.31,41.32,3.42,34.87,10.21,86.96,20.94,120.07,4.06,12.52,11.63,22.24,14.59,34.53Z"/>
  <path class="st1" d="M572.38,571.35l-9.45,38.15c-16.35,12.89-66.09,10.99-82.54.62-15.05-9.48-6.05-35.61,6.2-44.26,24.48,15.83,58.85,13.99,85.79,5.48Z"/>
  <path class="st1" d="M778.55,951.77c-4.26.72-2.25-1.12-3-3.34-10.56-31.32-26.95-68.77-54-89.86-6.2-4.84-17.52-12.05-25.46-11.53l11.36,20.66-19.89-12.81c2.3,17.04,19.54,27.39,22.08,44.12.23,1.5,1.92,4.64-.75,4.31-2.79-9.29-12.88-16.15-19.97-22.41l-24.14-46.67c28.79-2.13,73.68,7.6,92.42,31.34,9.7,12.29,21.33,41.51,21.33,56.99v29.21Z"/>
  <path class="st1" d="M714.56,719.54l-5.68,4.25c8.21.29,20.72-4.2,27.06,3.53,8.66,10.56-4.49,19.55-13.87,21.82-14.27,3.44-26.6,4.2-41.16,10.05-5.5,2.21-26.95,13.17-30.41,16.66-1.97,1.99.46,4.4-1.24,5.65-1.89,1.39-6.33,1.69-8.61,3.58-1.14-1.37,3.44-7.38,4.51-9,10.5-15.79,31.1-45.19,48.08-52.98,6.8-3.12,13.85-4.2,21.31-3.55Z"/>
  <path class="st1" d="M539.7,631.2l-1.02,2.55,2.34,2.25c-14.39,19.45-26.18,38.2-31.89,62.14-7.89-16.63-13.66-34.3-21.79-50.83-5.11-10.39-11.24-20.53-17.31-30.36.99-.82,13.5,6.14,16.32,7.14,17.05,6.06,35.37,7.6,53.35,7.11Z"/>
  <path class="st1" d="M536.85,837.78c-12.43,9.02-24.89,18.32-41.23,17.08,15.8-11.79,35.27-21.5,44.84-39.83,1.3-2.48,4.03-12.75,5.62-12.84,5.39,4.11,16.56,9.49,17.69,16.44-2.34,26.91-3.78,54.09-9.88,80.41-1.69-.51-3.91-6.56-4.16-7.92-.55-2.96.11-6.17-.09-9.17-12.75,1.81,4.53,19.39-8.52,21.36.06-5.81-.33-11.6.39-17.4,1.48-11.75,9.58-21.48,11.76-33.81,1.34-7.57.99-16.5,2.04-24.29l-18.46,33.49c-3.89,1.44,0-2.68,0-2.86v-20.66Z"/>
  <path class="st1" d="M306.51,698.16c2.87,8.86.57,18.26,1.8,27.41,1.91,14.13,11.01,31.56,16.5,44.78.45,4.49-7.35,3.58-10.15,2.98-11.74-2.48-26.74-29.27-42.26-31.04,5.35-14.4,17.67-32.56,29.84-42.02,1.42-1.1,1.82-2.75,4.26-2.12Z"/>
  <path class="st1" d="M659.03,517.27c4.15,2.62-1.21,28.44-2.54,33.63-6.92,26.91-20.34,56.96-33.16,80.75l-12.54,18.05c3.28-13.54,9-26.76,13.16-40.22,7.08-22.92,12.26-46.38,20.92-68.8,1.52-3.94,7.88-20.72,9.86-22.56,1.21-1.12,3.18-1.55,4.29-.85Z"/>
  <path class="st1" d="M787.07,802.16c-5.34.76-8.24-5.31-10.89-6.82-2.84-1.62-14.91-4.88-18.64-5.6-36.14-6.99-70.17,3.36-102.68,18.11,27.03-33.22,68.27-43.09,108.04-26.33,3.47,1.46,28.48,16.1,24.17,20.64Z"/>
  <path class="st1" d="M400.28,802.23c6.91,25.4,19.57,45.82,42.72,59.07-15.75,2.55-28.52-11.83-38.37-22.09,1.8,4.95.66,10.65,2.48,15.31,3.19,8.16,15.2,12.27,15.98,21.73-15.77-11.58-26.19-28.78-32.7-47.01l-12.76,27.06c-.73-14.92,2.21-34.08,11.36-46.3,1.64-2.2,8.53-9.65,11.3-7.77Z"/>
  <path class="st1" d="M777.11,866.27l-10.63-14.26c-8.71-8.18-16.53-18.77-28.16-23.08-16.16-5.99-34.04-3.01-50.76-6.11,17.44-13.52,33.81-11.73,53.11-3.37,17.47,7.58,36.57,26.59,36.44,46.81Z"/>
  <path class="st1" d="M310.79,829.25l-25.39,46.49-15.83,36.12c.45-12.5,3-25.5,7.82-37.02,1.93-4.6,5.63-8,6.37-12.84-10.74,11.44-19.06,26.58-24.17,41.31-2.52.36-1.38-3.2-1.07-4.64,3.29-15.28,15.85-36.15,25.96-48.09,2.54-3,23.27-24.16,26.32-21.34Z"/>
  <path class="st1" d="M320.73,802.18c.07,2.15-4.97,2.43-6.56,2.66-10.66,1.56-21.51,1.03-32.11,3.44-7.6,1.73-13.78,5.79-21.03,8.12,4.39-25.8,10.52-36.34,37.35-25.32,7.47,3.07,14.25,10.09,22.34,11.1Z"/>
  <path class="st1" d="M519.79,824.95l2.83-17.08-19.19,12.81c-2.7.88,1.64-6.23,1.77-6.78.69-2.95-.13-6.03,1.1-8.87,1.64-3.79,11.8-9.62,13.5-15.01,18.38-.53,15.95,13.38,8.79,25.95-.77,1.35-6.94,10.84-8.8,8.98Z"/>
  <path class="st1" d="M701.76,941.79l-8.31-13.73-19.86-44.21-31.52-47.48c1.66-1.63,11.33,9.13,12.75,10.72,22.03,24.57,38.91,62.86,46.94,94.7Z"/>
  <path class="st1" d="M516.94,307.74c-8.52-1.17-18.06-6.21-26.47-6.97-23.7-2.16-47.76-3.2-71.33-9.71-2.78-.77-8.8-2.12-10.26-4.66,16.61,2.79,33.73,3.48,50.29,5.86,18.45,2.66,43.28,4.1,57.76,15.48Z"/>
  <path d="M455.81,483.01c-3.65-1.74-6.82-5.66-11.37-6.4,2.45-3.66,5.36,0,8.47-1.36,2.45-1.08,5.27-6.93,8.2-7.71,2.68-.71,12.78,1.81,18.18,1.23,4.73-.51,8.61-3.33,13.49-2.84-9.19,5.38-8.67,18.94-18.84,23.12-5.9,2.43-16.19.75-18.12-6.04,11.34,5.41,20.59,5.09,24.17-8.53l-23.33,5.6c-1.33-.03-1.08,2.08-.84,2.94Z"/>
  <path d="M525.46,364.77c.36,2.52-3.2,1.39-4.63,1.08-25.1-5.5-50.48-16.86-74.24,3.21-3.45,2.91-4.91,7.88-9.27,8.5,10.68-34.53,63.13-27,88.14-12.79Z"/>
  <path d="M460.07,397.53c7.24-.31,14.09,4.61,21.01,5.35,14.63,1.57,23.58-11.32,35.85-16.76.62,2.67-1.49,3.39-2.83,4.99-16.41,19.6-34.38,28.62-54.03,6.42Z"/>
</svg>